<svg width="22" height="22" viewBox="0 0 22 22" fill="none" xmlns="http://www.w3.org/2000/svg">
<path d="M19.8048 5H13.9496C13.6311 5 13.3726 5.25813 13.3726 5.57694V6.74231C13.3726 7.06076 13.6311 7.31926 13.9496 7.31926H16.4228L11.3621 12.3796L9.21662 10.2341C8.76354 9.7814 8.02935 9.7814 7.57627 10.2341L2.1691 15.642C1.94363 15.8671 1.94363 16.2326 2.1691 16.4577L2.99304 17.282C3.21815 17.5071 3.58363 17.5071 3.80873 17.282L8.39662 12.6941L10.5418 14.8396C10.9948 15.2928 11.7291 15.293 12.1821 14.8396L18.0625 8.95925V11.4325C18.0625 11.751 18.3206 12.0095 18.6394 12.0095H19.8048C20.1236 12.0095 20.3817 11.751 20.3817 11.4325V5.57694C20.3817 5.25813 20.1236 5 19.8048 5Z" fill="white" fill-opacity="0.65"/>
</svg>
