<svg width="19" height="19" viewBox="0 0 19 19" fill="none" xmlns="http://www.w3.org/2000/svg">
<path d="M15.439 7.86943H14.6734V5.17343C14.6733 2.32084 12.3526 0 9.4999 0C6.64739 0 4.32655 2.32084 4.32655 5.17347V7.86947H3.56097C2.95578 7.86947 2.46509 8.36008 2.46509 8.96531V17.9041C2.46509 18.5094 2.95574 19 3.56097 19H15.439C16.0442 19 16.5348 18.5094 16.5348 17.9041V8.96531C16.5348 8.36005 16.0442 7.86943 15.439 7.86943ZM10.6664 15.7192H8.33355L8.75107 13.7297C8.36061 13.4813 8.0998 13.0474 8.0998 12.5503C8.0998 11.777 8.72671 11.1502 9.49994 11.1502C10.2732 11.1502 10.9 11.777 10.9 12.5503C10.9 13.0474 10.6393 13.4813 10.2489 13.7297L10.6664 15.7192ZM12.8274 7.86943H6.17247V5.17343C6.17247 3.33849 7.66508 1.84592 9.49994 1.84592C11.3349 1.84592 12.8274 3.33853 12.8274 5.17343V7.86943Z" fill="white" fill-opacity="0.65"/>
</svg>
