<svg width="22" height="22" viewBox="0 0 22 22" fill="none" xmlns="http://www.w3.org/2000/svg">
<path d="M7.85744 11C8.63456 11 9.39423 10.7696 10.0404 10.3378C10.6865 9.90603 11.1901 9.29235 11.4875 8.57437C11.7848 7.85639 11.8626 7.06635 11.711 6.30417C11.5593 5.54198 11.185 4.84189 10.6355 4.29243C10.0859 3.74297 9.38575 3.36882 8.62354 3.21729C7.86133 3.06576 7.0713 3.14367 6.35337 3.44116C5.63544 3.73864 5.02186 4.24235 4.59021 4.88857C4.15856 5.53479 3.92824 6.2945 3.92838 7.07163C3.92947 8.11328 4.34379 9.11195 5.08042 9.84845C5.81704 10.5849 6.81578 10.9991 7.85744 11ZM12.9972 14.2457C12.0016 13.2245 10.7241 12.5232 9.32803 12.2315C7.93195 11.9398 6.48059 12.0709 5.15936 12.608C3.83813 13.1451 2.707 14.0639 1.91046 15.247C1.11393 16.4301 0.688144 17.8238 0.6875 19.25C0.6875 19.4323 0.759933 19.6072 0.888864 19.7361C1.0178 19.8651 1.19266 19.9375 1.375 19.9375H14.3413C14.5236 19.9375 14.6985 19.8651 14.8274 19.7361C14.9563 19.6072 15.0288 19.4323 15.0288 19.25C15.0314 18.521 14.9189 17.7961 14.6953 17.1023C14.3624 16.0295 13.7806 15.0507 12.9972 14.2457Z" fill="white" fill-opacity="0.65"/>
<path d="M16.1562 11.3438C17.77 11.3438 19.0781 10.0356 19.0781 8.42188C19.0781 6.80817 17.77 5.5 16.1562 5.5C14.5425 5.5 13.2344 6.80817 13.2344 8.42188C13.2344 10.0356 14.5425 11.3438 16.1562 11.3438Z" fill="white" fill-opacity="0.65"/>
<path d="M16.1562 12.1481C15.2346 12.1516 14.3309 12.4026 13.5396 12.8748C13.6887 13.0082 13.8393 13.1395 13.9802 13.2839C14.9164 14.2461 15.6118 15.4159 16.0097 16.698C16.146 17.1201 16.2465 17.5529 16.3102 17.9919H20.6249C20.8073 17.9919 20.9821 17.9194 21.1111 17.7905C21.24 17.6616 21.3124 17.4867 21.3124 17.3044C21.311 15.9373 20.7673 14.6266 19.8006 13.66C18.8339 12.6933 17.5233 12.1496 16.1562 12.1481Z" fill="white" fill-opacity="0.65"/>
</svg>
