<svg width="20" height="20" viewBox="0 0 20 20" fill="none" xmlns="http://www.w3.org/2000/svg">
<path d="M12.0894 7.35959C12.0448 7.35955 12.0006 7.35192 11.9585 7.33701L9.99988 6.64045L8.04108 7.33701C7.9813 7.35826 7.91724 7.36462 7.85445 7.35556C7.79166 7.34649 7.73202 7.32227 7.68069 7.28498C7.62935 7.24765 7.58786 7.19839 7.55982 7.14145C7.53177 7.08451 7.51801 7.02159 7.51971 6.95814L7.57693 4.88001L6.30923 3.23238C6.27049 3.1821 6.2446 3.12314 6.23379 3.0606C6.22297 2.99806 6.22757 2.93383 6.24718 2.87347C6.26679 2.81311 6.30083 2.75844 6.34633 2.71419C6.39184 2.66995 6.44744 2.63747 6.50834 2.61956L8.50237 2.03183L9.67761 0.316855C9.71354 0.264566 9.76165 0.221806 9.8178 0.192263C9.87394 0.162721 9.93643 0.147283 9.99988 0.147283C10.0633 0.147283 10.1258 0.162721 10.182 0.192263C10.2381 0.221806 10.2862 0.264566 10.3221 0.316855L11.4974 2.03183L13.4914 2.6196C13.5523 2.63752 13.6079 2.67001 13.6534 2.71425C13.6989 2.75849 13.7329 2.81316 13.7525 2.87351C13.7722 2.93387 13.7768 2.9981 13.766 3.06063C13.7552 3.12317 13.7293 3.18214 13.6906 3.23242L12.4228 4.8802L12.48 6.95814C12.4815 7.01033 12.4724 7.06227 12.4534 7.1109C12.4344 7.15953 12.4058 7.20387 12.3694 7.24128C12.333 7.2787 12.2895 7.30845 12.2414 7.32877C12.1933 7.34909 12.1416 7.35957 12.0894 7.35959ZM7.27603 3.20781L8.28081 4.51383C8.33558 4.585 8.36414 4.67289 8.36167 4.76266L8.31635 6.4099L9.86894 5.85782C9.95364 5.82776 10.0461 5.82776 10.1308 5.85782L11.6832 6.4099L11.6381 4.7627C11.6355 4.6729 11.6641 4.58498 11.719 4.51383L12.7237 3.20777L11.1432 2.74175C11.057 2.71642 10.9822 2.66209 10.9314 2.58796L9.99988 1.22873L9.06831 2.588C9.01754 2.66213 8.94272 2.71646 8.85651 2.74179L7.27603 3.20781ZM15.6939 3.76293C15.6126 3.76293 15.5318 3.73746 15.4642 3.68832C15.4129 3.65105 15.3714 3.60181 15.3434 3.54489C15.3153 3.48796 15.3016 3.42506 15.3034 3.36164L15.3274 2.48609L14.7933 1.79175C14.7546 1.74145 14.7287 1.68249 14.7179 1.61997C14.7072 1.55744 14.7117 1.49323 14.7313 1.43288C14.7509 1.37253 14.785 1.31787 14.8305 1.27363C14.876 1.22939 14.9315 1.1969 14.9924 1.17897L15.8325 0.931311L16.3277 0.208807C16.3636 0.156463 16.4117 0.113649 16.4678 0.0840674C16.524 0.0544856 16.5865 0.0390262 16.65 0.0390262C16.7134 0.0390262 16.7759 0.0544856 16.8321 0.0840674C16.8882 0.113649 16.9363 0.156463 16.9722 0.208807L17.4674 0.931311L18.3074 1.17897C18.3683 1.19693 18.4238 1.22943 18.4694 1.27366C18.5149 1.3179 18.5489 1.37254 18.5686 1.43288C18.5882 1.49323 18.5928 1.55744 18.582 1.61997C18.5712 1.68249 18.5453 1.74145 18.5066 1.79175L17.9725 2.48605L17.9966 3.3616C17.9983 3.42502 17.9846 3.48793 17.9566 3.54485C17.9286 3.60178 17.8871 3.65101 17.8357 3.68828C17.7844 3.72554 17.7248 3.74975 17.662 3.75882C17.5992 3.76788 17.5351 3.76153 17.4753 3.74031L16.65 3.44687L15.8248 3.74031C15.7827 3.75522 15.7385 3.76285 15.6939 3.76289L15.6939 3.76293ZM16.65 2.64171C16.6943 2.64171 16.7385 2.64917 16.7808 2.66429L17.1999 2.81324L17.1877 2.36859C17.1852 2.27879 17.2137 2.19086 17.2686 2.11972L17.5398 1.76706L17.1131 1.64135C17.0269 1.61597 16.9521 1.56164 16.9013 1.48753L16.6498 1.12053L16.3984 1.48753C16.3476 1.56163 16.2728 1.61595 16.1866 1.64135L15.76 1.76706L16.0312 2.11972C16.086 2.1909 16.1145 2.27878 16.112 2.36855L16.0998 2.81324L16.5189 2.66429C16.561 2.64933 16.6053 2.64169 16.65 2.64171ZM4.30586 3.76293C4.26126 3.76289 4.217 3.75526 4.17496 3.74035L3.34976 3.44691L2.52456 3.74035C2.46477 3.76165 2.40069 3.76806 2.33787 3.75901C2.27505 3.74997 2.21538 3.72575 2.16402 3.68845C2.11267 3.65115 2.07118 3.60189 2.04315 3.54495C2.01512 3.488 2.00139 3.42508 2.00315 3.36164L2.02725 2.48609L1.49307 1.79175C1.45439 1.74145 1.42854 1.68249 1.41777 1.61996C1.407 1.55743 1.41164 1.49321 1.43127 1.43288C1.45087 1.3725 1.48488 1.31781 1.53037 1.27354C1.57585 1.22927 1.63145 1.19676 1.69233 1.17881L2.53234 0.931155L3.02749 0.20869C3.06341 0.15638 3.11152 0.113597 3.16767 0.0840332C3.22381 0.0544698 3.28631 0.0390145 3.34976 0.0390015C3.41322 0.0390145 3.47571 0.0544698 3.53186 0.0840332C3.58801 0.113597 3.63611 0.15638 3.67203 0.20869L4.16719 0.931194L5.00719 1.17901C5.06807 1.19692 5.12366 1.22941 5.16915 1.27365C5.21464 1.31789 5.24865 1.37256 5.26825 1.43292C5.28785 1.49326 5.29246 1.55746 5.2817 1.61999C5.27093 1.68251 5.24511 1.74147 5.20645 1.79178L4.67223 2.48593L4.69633 3.36148C4.6978 3.41368 4.68879 3.46563 4.66982 3.51428C4.65086 3.56293 4.62233 3.60728 4.58592 3.64471C4.54952 3.68214 4.50597 3.71189 4.45787 3.73219C4.40976 3.7525 4.35808 3.76295 4.30586 3.76293ZM3.34976 2.64171C3.39402 2.64171 3.43843 2.64917 3.48066 2.66429L3.8998 2.81324L3.88762 2.36859C3.88509 2.27881 3.91361 2.19091 3.96836 2.11972L4.23965 1.76706L3.81301 1.64135C3.72679 1.61601 3.65198 1.56167 3.60121 1.48753L3.34976 1.12053L3.09828 1.48753C3.04746 1.56163 2.97266 1.61595 2.88648 1.64135L2.45987 1.76706L2.73116 2.11972C2.78594 2.19089 2.8145 2.27877 2.81202 2.36855L2.79984 2.81324L3.21898 2.66429C3.26096 2.64932 3.3052 2.64168 3.34976 2.64171ZM9.99988 16.1916C9.97457 16.1916 9.94875 16.1889 9.92371 16.1838C9.89866 16.1789 9.87418 16.1714 9.85066 16.1615C9.827 16.1518 9.80436 16.1397 9.78308 16.1255C9.76167 16.1115 9.74177 16.0953 9.7237 16.0771C9.70556 16.0591 9.68934 16.0392 9.67531 16.0178C9.66105 15.9965 9.649 15.9739 9.63933 15.9502C9.62941 15.9267 9.62195 15.9022 9.61706 15.8771C9.61199 15.8521 9.60925 15.8263 9.60925 15.801C9.60925 15.7756 9.61199 15.7498 9.61706 15.7248C9.62175 15.6998 9.62956 15.6752 9.63933 15.6514C9.64906 15.6279 9.66111 15.6053 9.67531 15.5841C9.68937 15.5626 9.7057 15.5428 9.7237 15.5248C9.74167 15.5068 9.76152 15.4905 9.78308 15.4764C9.80433 15.4621 9.82697 15.4501 9.85066 15.4404C9.89793 15.4207 9.94865 15.4105 9.99988 15.4105C10.0511 15.4105 10.1018 15.4207 10.1491 15.4404C10.1729 15.4501 10.1955 15.4622 10.2166 15.4764C10.238 15.4905 10.258 15.5068 10.2761 15.5248C10.2941 15.5428 10.3104 15.5626 10.3245 15.5842C10.3385 15.6052 10.3507 15.6279 10.3604 15.6514C10.3702 15.6753 10.378 15.6998 10.3826 15.7248C10.3878 15.7498 10.3905 15.7756 10.3905 15.801C10.3905 15.8263 10.3878 15.8522 10.3826 15.8771C10.3726 15.9274 10.3528 15.9751 10.3245 16.0178C10.3104 16.0392 10.2942 16.0591 10.2761 16.0771C10.2581 16.0951 10.2381 16.1115 10.2166 16.1255C10.1955 16.1396 10.1729 16.1518 10.1491 16.1615C10.1256 16.1713 10.1011 16.1791 10.0761 16.1838C10.051 16.1889 10.0252 16.1916 9.99988 16.1916ZM9.99988 14.9025C9.78413 14.9025 9.60925 14.7276 9.60925 14.5119V8.06639C9.60925 7.85076 9.78413 7.67576 9.99988 7.67576C10.2156 7.67576 10.3905 7.85076 10.3905 8.06639V14.5119C10.3905 14.7275 10.2156 14.9025 9.99988 14.9025ZM16.6306 12.4133C16.5567 12.4134 16.4843 12.3924 16.4219 12.353C16.3594 12.3135 16.3094 12.2571 16.2777 12.1904L15.5756 10.7135L14.0989 10.0114C13.9825 9.95621 13.9008 9.84711 13.8807 9.71984C13.8605 9.59257 13.9045 9.46351 13.998 9.37499L15.1856 8.25104L15.3969 6.62947C15.4051 6.56654 15.4285 6.50655 15.4651 6.4547C15.5017 6.40285 15.5504 6.3607 15.607 6.3319C15.6635 6.30309 15.7262 6.2885 15.7897 6.28938C15.8532 6.29027 15.9154 6.3066 15.9712 6.33697L17.4071 7.119L19.0145 6.819C19.0769 6.8073 19.1412 6.81099 19.2018 6.82976C19.2624 6.84853 19.3176 6.8818 19.3624 6.9267C19.4073 6.97159 19.4405 7.02671 19.4593 7.08732C19.4781 7.14793 19.4819 7.2122 19.4703 7.27459L19.1702 8.88198L19.9523 10.318C19.9826 10.3737 19.9989 10.436 19.9998 10.4995C20.0006 10.5629 19.986 10.6256 19.9572 10.6822C19.9284 10.7387 19.8862 10.7874 19.8344 10.824C19.7825 10.8605 19.7226 10.884 19.6597 10.8922L18.0382 11.1035L16.9141 12.2911C16.8777 12.3297 16.8338 12.3605 16.785 12.3815C16.7362 12.4025 16.6837 12.4134 16.6306 12.4134V12.4133ZM14.949 9.55062L16.0366 10.0676C16.1176 10.1062 16.1831 10.1715 16.2217 10.2527L16.7387 11.3402L17.5663 10.4657C17.6281 10.4004 17.7105 10.3584 17.7996 10.3468L18.9936 10.1912L18.4176 9.13378C18.3747 9.05486 18.3602 8.96358 18.3767 8.87526L18.5977 7.69147L17.414 7.91256C17.3257 7.92889 17.2344 7.91455 17.1555 7.87155L16.0979 7.29568L15.9425 8.48967C15.9309 8.57877 15.8889 8.66114 15.8236 8.72284L14.949 9.55062Z" fill="#009F8D"/>
<path d="M10.6894 18.9206C10.6758 18.9206 10.6624 18.92 10.6486 18.9187C10.4341 18.8964 10.2782 18.7044 10.3003 18.4899C10.5563 16.0131 11.7488 14.1315 12.7042 12.9892C13.7358 11.7553 14.7115 11.0997 14.7524 11.0724C14.932 10.9529 15.1744 11.0014 15.294 11.1812C15.4135 11.3606 15.3649 11.6032 15.1853 11.7227C15.1482 11.7474 14.2635 12.3422 13.3034 13.4903C12.4181 14.5491 11.313 16.2899 11.0774 18.5703C11.0567 18.7711 10.887 18.9207 10.6894 18.9207V18.9206ZM3.36925 12.4133C3.31615 12.4133 3.26361 12.4025 3.21484 12.3815C3.16607 12.3605 3.12209 12.3298 3.08557 12.2912L1.96166 11.1037L0.34009 10.8923C0.277147 10.8841 0.217152 10.8607 0.165305 10.8241C0.113458 10.7875 0.0713225 10.7388 0.0425493 10.6822C0.0137509 10.6256 -0.000840607 10.563 3.74044e-05 10.4995C0.000915416 10.4361 0.0172365 10.3738 0.0475884 10.3181L0.829624 8.88212L0.529622 7.27458C0.517927 7.2122 0.521623 7.14792 0.540389 7.08729C0.559156 7.02667 0.592428 6.97154 0.637318 6.92668C0.682176 6.88178 0.73731 6.8485 0.797941 6.82972C0.858571 6.81095 0.922867 6.80725 0.98525 6.81895L2.5926 7.11911L4.02863 6.33695C4.08435 6.30657 4.14664 6.29023 4.2101 6.28934C4.27356 6.28846 4.33628 6.30305 4.39283 6.33185C4.44939 6.36066 4.49807 6.40282 4.53466 6.45467C4.57125 6.50653 4.59466 6.56652 4.60285 6.62945L4.81418 8.25103L6.00188 9.37498C6.04795 9.41863 6.0827 9.47283 6.10312 9.53292C6.12354 9.59301 6.12902 9.65716 6.11909 9.71984C6.10916 9.78252 6.08411 9.84184 6.04612 9.89267C6.00813 9.9435 5.95832 9.98431 5.90102 10.0116L4.42414 10.7137L3.72222 12.1904C3.69047 12.2571 3.64046 12.3134 3.578 12.3529C3.51553 12.3924 3.44313 12.4133 3.36925 12.4133ZM1.00627 10.1912L2.20026 10.3468C2.28936 10.3584 2.37172 10.4004 2.43342 10.4657L3.2612 11.3402L3.7782 10.2527C3.81676 10.1715 3.88213 10.1061 3.96327 10.0676L5.05078 9.5506L4.17628 8.72283C4.11096 8.66112 4.06897 8.57873 4.05742 8.48962L3.90179 7.29567L2.84436 7.87169C2.76544 7.9146 2.67416 7.92904 2.58585 7.91259L1.40209 7.69161L1.62303 8.87525C1.63965 8.96355 1.6252 9.05487 1.58213 9.13373L1.00627 10.1912Z" fill="#009F8D"/>
<path d="M9.31062 18.9206C9.11284 18.9206 8.94331 18.7711 8.92257 18.5702C8.68683 16.2897 7.58194 14.5491 6.69662 13.4903C5.73697 12.3428 4.8518 11.7474 4.81458 11.7227C4.63497 11.6031 4.58629 11.3605 4.70594 11.181C4.82555 11.0014 5.06806 10.9528 5.24763 11.0724C5.28864 11.0997 6.26478 11.7561 7.2958 12.9892C8.25116 14.1315 9.44367 16.0131 9.69972 18.4899C9.72183 18.7044 9.56589 18.8964 9.35121 18.9185C9.33761 18.92 9.32402 18.9206 9.31058 18.9206H9.31062ZM13.0687 18.8478C13.0033 18.8478 12.9389 18.8313 12.8814 18.7999C12.824 18.7685 12.7754 18.7231 12.7401 18.668C12.7048 18.6129 12.6839 18.5498 12.6793 18.4845C12.6747 18.4192 12.6866 18.3537 12.714 18.2943C13.3103 16.994 14.3042 16.1917 15.033 15.7476C15.8053 15.2768 16.4327 15.1021 16.5016 15.0836C16.7102 15.0281 16.9242 15.152 16.9797 15.3604C17.0353 15.5689 16.9114 15.7829 16.7029 15.8385C16.6973 15.84 16.1295 15.9941 15.4395 16.4147C14.8038 16.8021 13.938 17.4992 13.4239 18.62C13.3583 18.7633 13.2167 18.8478 13.0687 18.8478ZM7.30162 18.8478C7.15357 18.8478 7.01201 18.7633 6.94623 18.62C6.43232 17.4992 5.56653 16.8021 4.93071 16.4147C4.24086 15.9941 3.67289 15.84 3.66727 15.8385C3.45883 15.7828 3.33492 15.5688 3.39062 15.3604C3.44617 15.152 3.66023 15.0281 3.86867 15.0836C3.93781 15.1021 4.5654 15.2771 5.33735 15.7476C6.06611 16.1917 7.06006 16.994 7.65639 18.2943C7.74643 18.4905 7.66034 18.7223 7.46412 18.8123C7.41314 18.8357 7.35772 18.8478 7.30162 18.8478ZM18.1971 13.8863C17.9815 13.8863 17.8064 13.7114 17.8064 13.4956V13.1705C17.8064 12.9547 17.9815 12.7798 18.1971 12.7798C18.4128 12.7798 18.5877 12.9547 18.5877 13.1705V13.4956C18.5877 13.7114 18.4128 13.8863 18.1971 13.8863ZM18.1971 15.65C17.9815 15.65 17.8064 15.475 17.8064 15.2594V14.9341C17.8064 14.7185 17.9815 14.5435 18.1971 14.5435C18.4128 14.5435 18.5877 14.7185 18.5877 14.9341V15.2594C18.5877 15.4751 18.4128 15.65 18.1971 15.65ZM19.2415 14.6056H18.9164C18.7008 14.6056 18.5258 14.4306 18.5258 14.2149C18.5258 13.9992 18.7008 13.8243 18.9164 13.8243H19.2415C19.4573 13.8243 19.6322 13.9992 19.6322 14.2149C19.6322 14.4306 19.4573 14.6056 19.2415 14.6056ZM17.4779 14.6056H17.1527C16.937 14.6056 16.7621 14.4306 16.7621 14.2149C16.7621 13.9992 16.937 13.8243 17.1527 13.8243H17.4779C17.6937 13.8243 17.8686 13.9992 17.8686 14.2149C17.8686 14.4306 17.6937 14.6056 17.4779 14.6056ZM1.80276 13.8863C1.58702 13.8863 1.41214 13.7114 1.41214 13.4956V13.1705C1.41214 12.9547 1.58702 12.7798 1.80276 12.7798C2.01854 12.7798 2.19339 12.9547 2.19339 13.1705V13.4956C2.19339 13.7114 2.01854 13.8863 1.80276 13.8863ZM1.80276 15.65C1.58702 15.65 1.41214 15.475 1.41214 15.2594V14.9341C1.41214 14.7185 1.58702 14.5435 1.80276 14.5435C2.01854 14.5435 2.19339 14.7185 2.19339 14.9341V15.2594C2.19339 15.4751 2.01854 15.65 1.80276 15.65ZM2.84722 14.6056H2.52206C2.30632 14.6056 2.13144 14.4306 2.13144 14.2149C2.13144 13.9992 2.30632 13.8243 2.52206 13.8243H2.84726C3.063 13.8243 3.23789 13.9992 3.23789 14.2149C3.23789 14.4306 3.06297 14.6056 2.84722 14.6056ZM1.08362 14.6056H0.758303C0.542677 14.6056 0.367676 14.4306 0.367676 14.2149C0.367676 13.9992 0.542677 13.8243 0.758303 13.8243H1.08362C1.2994 13.8243 1.47424 13.9992 1.47424 14.2149C1.47424 14.4306 1.2994 14.6056 1.08362 14.6056Z" fill="#009F8D"/>
</svg>
