<svg width="24" height="24" viewBox="0 0 24 24" fill="none" xmlns="http://www.w3.org/2000/svg">
<g clip-path="url(#clip0_119_470)">
<path d="M1.51042 22.1243C1.30304 22.1243 1.13354 21.9566 1.13354 21.7493C1.13354 21.5419 1.2993 21.3743 1.50629 21.3743H1.51042C1.60988 21.3743 1.70526 21.4138 1.77559 21.4841C1.84591 21.5544 1.88542 21.6498 1.88542 21.7493C1.88542 21.8487 1.84591 21.9441 1.77559 22.0144C1.70526 22.0848 1.60988 22.1243 1.51042 22.1243ZM22.8757 18.1736C22.7932 18.1737 22.713 18.1465 22.6475 18.0963C22.582 18.0461 22.5349 17.9758 22.5135 17.8961C22.492 17.8165 22.4975 17.732 22.5289 17.6557C22.5603 17.5794 22.6161 17.5157 22.6874 17.4743C22.8583 17.3752 23.0002 17.233 23.0989 17.0619C23.1976 16.8908 23.2497 16.6968 23.2499 16.4993C23.2499 15.879 22.7452 15.3743 22.1249 15.3743C22.0255 15.3743 21.9301 15.3348 21.8598 15.2644C21.7894 15.1941 21.7499 15.0987 21.7499 14.9993C21.7499 14.8998 21.7894 14.8044 21.8598 14.7341C21.9301 14.6638 22.0255 14.6243 22.1249 14.6243C23.1588 14.6243 23.9999 15.4654 23.9999 16.4993C23.9993 16.8282 23.9125 17.1512 23.7482 17.4361C23.5838 17.721 23.3476 17.9579 23.0632 18.123C23.0063 18.1562 22.9416 18.1737 22.8757 18.1736Z" fill="#39D048"/>
<path d="M12.7503 23.6243C12.6668 23.6243 12.5857 23.5964 12.5198 23.5451C12.454 23.4938 12.4071 23.4221 12.3867 23.3411C12.3662 23.2602 12.3734 23.1748 12.407 23.0983C12.4405 23.0219 12.4987 22.9589 12.5721 22.9193L22.6971 17.4679C22.7406 17.4432 22.7885 17.4275 22.8381 17.4216C22.8878 17.4158 22.9381 17.4199 22.9861 17.4337C23.0341 17.4475 23.0788 17.4708 23.1177 17.5022C23.1566 17.5336 23.1888 17.5724 23.2125 17.6164C23.2361 17.6604 23.2508 17.7087 23.2555 17.7585C23.2603 17.8082 23.255 17.8584 23.2401 17.9061C23.2252 17.9537 23.2008 17.998 23.1686 18.0361C23.1363 18.0743 23.0968 18.1056 23.0523 18.1283L12.9273 23.5796C12.8729 23.609 12.812 23.6244 12.7503 23.6243Z" fill="#39D048"/>
<path d="M12.7503 23.6243C12.7334 23.6243 12.7166 23.6231 12.6993 23.6209L4.44968 22.4959C4.40087 22.4892 4.35386 22.473 4.31132 22.4482C4.26877 22.4234 4.23153 22.3905 4.20173 22.3512C4.17192 22.312 4.15013 22.2673 4.13759 22.2197C4.12506 22.1721 4.12203 22.1224 4.12868 22.0736C4.13532 22.0248 4.15152 21.9778 4.17634 21.9353C4.20116 21.8927 4.23411 21.8555 4.27332 21.8257C4.31253 21.7959 4.35723 21.7741 4.40486 21.7616C4.45249 21.749 4.50212 21.746 4.55093 21.7526L12.8006 22.8776C12.8948 22.8904 12.9807 22.9384 13.0408 23.0121C13.101 23.0858 13.1309 23.1796 13.1245 23.2744C13.1181 23.3693 13.0759 23.4583 13.0064 23.5232C12.937 23.5882 12.8454 23.6243 12.7503 23.6243Z" fill="#39D048"/>
<path d="M4.5003 22.8735H3.37793C3.27847 22.8735 3.18309 22.834 3.11276 22.7637C3.04244 22.6934 3.00293 22.598 3.00293 22.4985C3.00293 22.3991 3.04244 22.3037 3.11276 22.2334C3.18309 22.163 3.27847 22.1235 3.37793 22.1235H4.1253V13.4993H3.37793C3.27847 13.4993 3.18309 13.4598 3.11276 13.3894C3.04244 13.3191 3.00293 13.2237 3.00293 13.1243C3.00293 13.0248 3.04244 12.9294 3.11276 12.8591C3.18309 12.7888 3.27847 12.7493 3.37793 12.7493H4.5003C4.59976 12.7493 4.69514 12.7888 4.76547 12.8591C4.8358 12.9294 4.8753 13.0248 4.8753 13.1243V22.4985C4.8753 22.598 4.8358 22.6934 4.76547 22.7637C4.69514 22.834 4.59976 22.8735 4.5003 22.8735ZM14.6246 16.4993C14.5299 16.4994 14.4387 16.4637 14.3692 16.3993C14.2998 16.3349 14.2573 16.2467 14.2502 16.1523C14.2431 16.0579 14.272 15.9643 14.3311 15.8903C14.3902 15.8163 14.475 15.7674 14.5687 15.7534L21.8126 14.6505C21.8616 14.6423 21.9118 14.6439 21.9602 14.6553C22.0085 14.6667 22.0542 14.6875 22.0945 14.7167C22.1347 14.7458 22.1688 14.7827 22.1947 14.8252C22.2205 14.8676 22.2377 14.9148 22.2452 14.9639C22.2527 15.0131 22.2503 15.0632 22.2382 15.1114C22.2262 15.1597 22.2046 15.205 22.1749 15.2448C22.1451 15.2846 22.1077 15.3182 22.0649 15.3434C22.0221 15.3687 21.9747 15.3851 21.9254 15.3919L14.6812 16.4948C14.6625 16.4978 14.6435 16.4993 14.6246 16.4993Z" fill="#39D048"/>
<path d="M13.125 17.9993C13.0255 17.9993 12.9302 17.9598 12.8598 17.8894C12.7895 17.8191 12.75 17.7237 12.75 17.6243C12.75 17.5248 12.7895 17.4294 12.8598 17.3591C12.9302 17.2888 13.0255 17.2493 13.125 17.2493C13.7452 17.2493 14.25 16.7445 14.25 16.1243C14.2508 15.8593 14.1578 15.6025 13.9873 15.3996C13.8169 15.1967 13.58 15.0607 13.3189 15.0158C13.2692 15.0087 13.2214 14.9917 13.1784 14.9659C13.1354 14.94 13.0981 14.9058 13.0685 14.8652C13.039 14.8246 13.0179 14.7786 13.0065 14.7297C12.9951 14.6808 12.9936 14.6302 13.0022 14.5807C13.0107 14.5313 13.0291 14.484 13.0562 14.4418C13.0833 14.3996 13.1186 14.3633 13.16 14.3349C13.2015 14.3066 13.2482 14.2869 13.2973 14.2769C13.3465 14.267 13.3972 14.267 13.4464 14.277C13.8819 14.3515 14.277 14.5779 14.5615 14.9161C14.8459 15.2543 15.0013 15.6824 15 16.1243C15 17.1581 14.1589 17.9993 13.125 17.9993Z" fill="#39D048"/>
<path d="M13.3829 15.0214C13.3588 15.0214 13.3346 15.019 13.3109 15.0143L7.42795 13.8671C7.37961 13.8577 7.33361 13.8389 7.29256 13.8117C7.25151 13.7844 7.21623 13.7494 7.18872 13.7086C7.16121 13.6677 7.14202 13.6219 7.13223 13.5736C7.12245 13.5253 7.12227 13.4756 7.1317 13.4273C7.15074 13.3297 7.20779 13.2436 7.29028 13.188C7.33112 13.1605 7.37699 13.1413 7.42525 13.1316C7.47352 13.1218 7.52324 13.1216 7.57157 13.131L13.4546 14.2782C13.5463 14.2958 13.6281 14.347 13.684 14.4217C13.7399 14.4965 13.766 14.5894 13.757 14.6824C13.7481 14.7753 13.7048 14.8616 13.6356 14.9243C13.5664 14.987 13.4763 15.0216 13.3829 15.0214Z" fill="#39D048"/>
<path d="M7.50011 13.8743H4.50049C4.40103 13.8743 4.30565 13.8348 4.23532 13.7644C4.165 13.6941 4.12549 13.5987 4.12549 13.4993C4.12549 13.3998 4.165 13.3044 4.23532 13.2341C4.30565 13.1638 4.40103 13.1243 4.50049 13.1243H7.50011C7.59957 13.1243 7.69495 13.1638 7.76528 13.2341C7.8356 13.3044 7.87511 13.3998 7.87511 13.4993C7.87511 13.5987 7.8356 13.6941 7.76528 13.7644C7.69495 13.8348 7.59957 13.8743 7.50011 13.8743ZM12.9676 17.9906L12.9384 17.9895L8.22124 17.6231C8.17186 17.6197 8.12365 17.6066 8.07939 17.5844C8.03513 17.5623 7.99568 17.5316 7.96334 17.4941C7.93099 17.4567 7.90638 17.4132 7.89092 17.3661C7.87547 17.3191 7.86947 17.2695 7.87328 17.2202C7.87709 17.1708 7.89064 17.1227 7.91313 17.0786C7.93562 17.0345 7.96662 16.9953 8.00433 16.9633C8.04205 16.9312 8.08574 16.907 8.13287 16.8919C8.18001 16.8768 8.22967 16.8712 8.27899 16.8754L12.9961 17.2418C13.0927 17.2493 13.1827 17.2939 13.2471 17.3662C13.3116 17.4386 13.3455 17.5331 13.3418 17.6299C13.3381 17.7267 13.2971 17.8184 13.2274 17.8856C13.1576 17.9529 13.0645 17.9905 12.9676 17.9906ZM21.8682 15.3956C21.7743 15.3954 21.6839 15.3599 21.6149 15.2962C21.5458 15.2324 21.5033 15.1451 21.4955 15.0515C21.4878 14.9579 21.5155 14.8648 21.5731 14.7906C21.6307 14.7164 21.7141 14.6666 21.8067 14.6509C21.912 14.6333 22.0184 14.6245 22.1251 14.6246C22.2246 14.6246 22.32 14.6642 22.3903 14.7345C22.4606 14.8048 22.5001 14.9002 22.5001 14.9996C22.5001 15.0991 22.4606 15.1945 22.3903 15.2648C22.32 15.3351 22.2246 15.3746 22.1251 15.3746C22.0599 15.3747 21.9948 15.38 21.9305 15.3908C21.9099 15.3941 21.8891 15.3957 21.8682 15.3956Z" fill="#39D048"/>
<path d="M13.125 17.9993C13.0575 17.9993 12.9911 17.9955 12.9259 17.988C12.8271 17.9768 12.7369 17.9269 12.675 17.8492C12.613 17.7715 12.5844 17.6724 12.5955 17.5736C12.6005 17.5245 12.6153 17.4769 12.6389 17.4336C12.6626 17.3903 12.6947 17.3521 12.7332 17.3214C12.7718 17.2906 12.8162 17.2678 12.8637 17.2544C12.9112 17.241 12.9609 17.2372 13.0099 17.2433C13.0481 17.2474 13.086 17.2496 13.125 17.2496C13.1752 17.248 13.2252 17.2566 13.2721 17.2747C13.319 17.2928 13.3617 17.3202 13.3978 17.3551C13.4339 17.3901 13.4626 17.4319 13.4822 17.4782C13.5018 17.5245 13.5119 17.5742 13.5119 17.6244C13.5119 17.6747 13.5018 17.7244 13.4822 17.7707C13.4626 17.817 13.4339 17.8588 13.3978 17.8938C13.3617 17.9287 13.319 17.9561 13.2721 17.9742C13.2252 17.9923 13.1752 18.0008 13.125 17.9993ZM3.37538 23.6243H0.375C0.275544 23.6243 0.180161 23.5847 0.109835 23.5144C0.0395088 23.4441 0 23.3487 0 23.2493C0 23.1498 0.0395088 23.0544 0.109835 22.9841C0.180161 22.9138 0.275544 22.8743 0.375 22.8743H3.00038V12.7493H0.375C0.275544 12.7493 0.180161 12.7098 0.109835 12.6394C0.0395088 12.5691 0 12.4737 0 12.3743C0 12.2748 0.0395088 12.1794 0.109835 12.1091C0.180161 12.0388 0.275544 11.9993 0.375 11.9993H3.37538C3.47483 11.9993 3.57021 12.0388 3.64054 12.1091C3.71087 12.1794 3.75038 12.2748 3.75038 12.3743V23.2493C3.75038 23.3487 3.71087 23.4441 3.64054 23.5144C3.57021 23.5847 3.47483 23.6243 3.37538 23.6243ZM11.6242 9.37726C11.004 9.37726 10.4992 8.87251 10.4992 8.25226C10.4992 7.63201 11.004 7.12726 11.6242 7.12726C11.7237 7.12726 11.8191 7.16677 11.8894 7.23709C11.9597 7.30742 11.9992 7.4028 11.9992 7.50226C11.9992 7.60171 11.9597 7.6971 11.8894 7.76742C11.8191 7.83775 11.7237 7.87726 11.6242 7.87726C11.5248 7.87726 11.4294 7.91677 11.3591 7.98709C11.2888 8.05742 11.2492 8.1528 11.2492 8.25226C11.2492 8.35171 11.2888 8.4471 11.3591 8.51742C11.4294 8.58775 11.5248 8.62726 11.6242 8.62726C11.7237 8.62726 11.8191 8.66677 11.8894 8.73709C11.9597 8.80742 11.9992 8.9028 11.9992 9.00226C11.9992 9.10171 11.9597 9.1971 11.8894 9.26742C11.8191 9.33775 11.7237 9.37726 11.6242 9.37726ZM15.3727 9.37726C15.2733 9.37726 15.1779 9.33775 15.1076 9.26742C15.0373 9.1971 14.9977 9.10171 14.9977 9.00226C14.9977 8.9028 15.0373 8.80742 15.1076 8.73709C15.1779 8.66677 15.2733 8.62726 15.3727 8.62726C15.4722 8.62726 15.5676 8.58775 15.6379 8.51742C15.7082 8.4471 15.7477 8.35171 15.7477 8.25226C15.7477 8.1528 15.7082 8.05742 15.6379 7.98709C15.5676 7.91677 15.4722 7.87726 15.3727 7.87726C15.2733 7.87726 15.1779 7.83775 15.1076 7.76742C15.0373 7.6971 14.9977 7.60171 14.9977 7.50226C14.9977 7.4028 15.0373 7.30742 15.1076 7.23709C15.1779 7.16677 15.2733 7.12726 15.3727 7.12726C15.993 7.12726 16.4977 7.63201 16.4977 8.25226C16.4977 8.87251 15.993 9.37726 15.3727 9.37726Z" fill="#39D048"/>
<path d="M15.3728 7.87726H11.6243C11.5248 7.87726 11.4294 7.83775 11.3591 7.76742C11.2888 7.6971 11.2493 7.60171 11.2493 7.50226C11.2493 7.4028 11.2888 7.30742 11.3591 7.23709C11.4294 7.16677 11.5248 7.12726 11.6243 7.12726H15.3728C15.4722 7.12726 15.5676 7.16677 15.6379 7.23709C15.7083 7.30742 15.7478 7.4028 15.7478 7.50226C15.7478 7.60171 15.7083 7.6971 15.6379 7.76742C15.5676 7.83775 15.4722 7.87726 15.3728 7.87726ZM15.3728 9.37726H11.6243C11.5248 9.37726 11.4294 9.33775 11.3591 9.26742C11.2888 9.1971 11.2493 9.10171 11.2493 9.00226C11.2493 8.9028 11.2888 8.80742 11.3591 8.73709C11.4294 8.66677 11.5248 8.62726 11.6243 8.62726H15.3728C15.4722 8.62726 15.5676 8.66677 15.6379 8.73709C15.7083 8.80742 15.7478 8.9028 15.7478 9.00226C15.7478 9.10171 15.7083 9.1971 15.6379 9.26742C15.5676 9.33775 15.4722 9.37726 15.3728 9.37726Z" fill="#33CD42"/>
<path d="M16.1228 16.2716C16.0233 16.2716 15.9279 16.2321 15.8576 16.1618C15.7873 16.0915 15.7478 15.9961 15.7478 15.8966V8.25226C15.7478 8.15281 15.7873 8.05742 15.8576 7.9871C15.9279 7.91677 16.0233 7.87726 16.1228 7.87726C16.2222 7.87726 16.3176 7.91677 16.3879 7.9871C16.4583 8.05742 16.4978 8.15281 16.4978 8.25226V15.8966C16.4978 15.9961 16.4583 16.0915 16.3879 16.1618C16.3176 16.2321 16.2222 16.2716 16.1228 16.2716ZM10.8743 14.532C10.7748 14.532 10.6794 14.4925 10.6091 14.4222C10.5388 14.3519 10.4993 14.2565 10.4993 14.157V8.25226C10.4993 8.15281 10.5388 8.05742 10.6091 7.9871C10.6794 7.91677 10.7748 7.87726 10.8743 7.87726C10.9737 7.87726 11.0691 7.91677 11.1394 7.9871C11.2098 8.05742 11.2493 8.15281 11.2493 8.25226V14.157C11.2493 14.2565 11.2098 14.3519 11.1394 14.4222C11.0691 14.4925 10.9737 14.532 10.8743 14.532ZM13.5 8.62726C13.4006 8.62726 13.3052 8.58775 13.2349 8.51743C13.1645 8.4471 13.125 8.35172 13.125 8.25226V4.50076C13.125 4.40131 13.1645 4.30592 13.2349 4.2356C13.3052 4.16527 13.4006 4.12576 13.5 4.12576C13.5995 4.12576 13.6949 4.16527 13.7652 4.2356C13.8355 4.30592 13.875 4.40131 13.875 4.50076V8.25226C13.875 8.35172 13.8355 8.4471 13.7652 8.51743C13.6949 8.58775 13.5995 8.62726 13.5 8.62726Z" fill="#39D048"/>
<path d="M13.5 6.75226C12.2591 6.75226 11.25 5.74314 11.25 4.50226C11.25 3.50739 12.0727 0.375763 13.5 0.375763C14.9272 0.375763 15.75 3.50739 15.75 4.50226C15.75 5.74276 14.7409 6.75226 13.5 6.75226ZM13.5 1.12576C12.8557 1.12576 12 3.44251 12 4.50226C12 5.32951 12.6727 6.00226 13.5 6.00226C14.3273 6.00226 15 5.32951 15 4.50226C15 3.44251 14.1442 1.12576 13.5 1.12576Z" fill="#39D048"/>
</g>
<defs>
<clipPath id="clip0_119_470">
<rect width="24" height="24" fill="white"/>
</clipPath>
</defs>
</svg>
