<svg width="62" height="57" viewBox="0 0 62 57" fill="none" xmlns="http://www.w3.org/2000/svg">
<path fill-rule="evenodd" clip-rule="evenodd" d="M31.4385 5.09549C42.2147 5.09549 51.0431 13.8719 51.0431 24.5846C51.0431 35.2973 42.2147 44.0738 31.4385 44.0738C20.6336 44.0738 11.8052 35.2973 11.8052 24.5846C11.8052 13.8719 20.6336 5.09549 31.4385 5.09549ZM13.1953 23.8794C15.8524 24.0832 18.2717 22.9419 21.138 21.8535C23.3236 21.1768 25.2426 21.5314 27.3093 22.3508C29.6999 23.7897 32.0044 24.0221 34.4237 22.3508C36.7282 21.1482 39.1762 21.3235 41.5996 22.3508C44.1378 23.5818 46.795 24.1118 49.6613 23.965C49.366 14.251 41.2757 6.38362 31.4467 6.38362C21.6095 6.3877 13.5479 14.2225 13.1953 23.8794ZM13.2527 26.9041C15.8524 27.1079 18.2717 25.9665 21.1339 24.8781C23.3195 24.2014 25.2385 24.5561 27.3052 25.3754C29.6958 26.8144 32.0003 27.0468 34.4196 25.3754C36.7241 24.1729 39.1721 24.3482 41.5955 25.3754C44.1338 26.6065 46.7909 27.1364 49.5669 27.0182C49.5957 26.5209 49.6859 26.0195 49.6572 25.4325C46.795 25.5793 44.1378 25.0208 41.5955 23.8183C39.1762 22.7625 36.7241 22.6157 34.4196 23.8183C32.0003 25.4896 29.6958 25.2572 27.3052 23.8183C25.2385 22.9948 23.3195 22.6443 21.1339 23.321C18.2717 24.4053 15.8483 25.5507 13.1912 25.4325C13.1624 25.9624 13.2814 26.4312 13.2527 26.9041ZM13.9908 29.9532C16.324 29.9532 18.5669 28.8363 21.1339 27.8987C23.3195 27.222 25.2385 27.5767 27.3052 28.396C29.6958 29.835 32.0003 30.0674 34.4196 28.396C36.7241 27.1935 39.1721 27.3688 41.5955 28.396C43.9 29.513 46.4095 30.0674 48.8863 29.9817C48.9765 29.4518 49.1528 28.983 49.2717 28.4246C46.5859 28.5143 44.0148 27.9843 41.5955 26.8389C39.1762 25.7831 36.7241 25.6363 34.4196 26.8389C32.0003 28.5102 29.6958 28.2778 27.3052 26.8389C25.2385 26.0154 23.3195 25.6649 21.1339 26.3415C18.448 27.3688 16.1148 28.396 13.5766 28.3675C13.6668 28.8974 13.8718 29.3988 13.9908 29.9532ZM15.2291 32.8597C17.0908 32.5947 19.0098 31.7142 21.1339 30.9234C23.3195 30.2467 25.2385 30.6014 27.3052 31.4207C29.6958 32.8597 32.0003 33.092 34.4196 31.4207C36.7241 30.2182 39.1721 30.3649 41.5955 31.4207C43.5146 32.3583 45.5238 32.8882 47.5905 32.9779C47.7668 32.4806 48.0621 31.9792 48.3286 31.4533C46.0241 31.4533 43.7524 30.8949 41.5955 29.8676C39.1762 28.8118 36.7241 28.6651 34.4196 29.8676C32.0003 31.5104 29.6958 31.3066 27.3052 29.8676C25.2385 29.0442 23.3195 28.6936 21.1339 29.3703C18.7146 30.2508 16.6479 31.278 14.491 31.3962C14.7576 31.861 15.0528 32.3909 15.2291 32.8597ZM17.8576 36.6181C21.2815 40.3439 26.1529 42.7816 31.4385 42.7816C36.5478 42.7816 41.1527 40.5518 44.6053 37.0583C43.6294 36.7934 42.6289 36.3817 41.5955 35.9129C39.1762 34.8571 36.7241 34.7103 34.4196 35.9129C32.0003 37.5556 29.6958 37.3518 27.3052 35.9129C25.2385 35.0894 23.3195 34.7389 21.1339 35.4156C19.9857 35.8232 18.8909 36.296 17.8576 36.6181ZM16.8857 35.4441C18.243 35.1221 19.6331 34.5065 21.138 33.9481C23.3236 33.2714 25.2426 33.626 27.3093 34.4454C29.6999 35.8843 32.0044 36.0882 34.4237 34.4454C36.7282 33.2428 39.1762 33.3896 41.5996 34.4454C42.9856 35.0894 44.3757 35.5908 45.7617 35.7947C46.0282 35.2973 46.3808 34.8245 46.7663 34.3842C45.0236 34.2375 43.3136 33.679 41.5996 32.8882C39.1803 31.8324 36.7282 31.6857 34.4237 32.8882C32.0044 34.531 29.6999 34.3272 27.3093 32.8882C25.2426 32.0648 23.3236 31.7142 21.138 32.3909C19.2763 33.0961 17.5664 33.8584 15.9713 34.1804C16.324 34.5636 16.6192 35.0038 16.8857 35.4441Z" fill="white"/>
<path fill-rule="evenodd" clip-rule="evenodd" d="M26.596 12.9303C27.0388 14.8951 28.6627 16.334 30.7006 16.334C33.0338 16.334 34.8914 14.4834 34.8914 12.168C34.8914 10.142 33.4726 8.4707 31.4961 8.05899C34.063 8.05899 36.2486 10.2032 36.2486 12.8732C36.2486 15.5147 34.063 17.6874 31.3772 17.6874C28.7529 17.6874 26.5673 15.5147 26.596 12.9303ZM26.8912 11.7889L28.6626 11.5851L29.4007 13.1993L29.7534 11.4668L31.5535 11.2304L30.0199 10.3499L30.4054 8.61745L29.0768 9.79145L27.5104 8.91095L28.2485 10.5537L26.8912 11.7889Z" fill="white"/>
<path d="M55.8572 29.1624L55.9761 28.4001M55.7957 27.752L55.8531 26.7533M55.1765 26.0521L55.0863 25.0534M53.6717 24.7599L53.5527 23.8509M52.8721 25.8157L52.8146 25.0534M51.9863 27.6949L51.7813 26.9041M51.8715 29.1053L51.605 28.3716M57.7763 37.8492L58.4242 37.2051M58.4529 36.5896L59.0146 35.7091M58.7481 34.796L59.1623 33.944M58.1002 32.9208L58.4529 32.0403M56.8578 33.4752L57.2719 32.7129M55.1765 34.6818L55.6481 33.6546M54.3482 35.8232L54.5246 34.9427M50.0386 48.1502L50.7767 47.9749M51.3385 47.5346L52.2816 47.2126M52.6383 46.275L53.524 45.8633M53.2862 44.3958L54.053 43.9556M51.9576 44.0738L52.667 43.8088M49.8623 44.0126L50.5101 43.4827M48.5337 44.4529L49.0955 43.923" stroke="white" stroke-width="0.45551" stroke-miterlimit="2.6131"/>
<path d="M34.7926 51.2808L34.6737 51.1626C33.6281 50.1516 32.6275 49.4831 31.4466 49.0021C30.0852 49.638 28.9781 50.3636 28.1498 51.1626L28.0309 51.2808L27.018 50.4859L27.1738 50.3351C28.0268 49.5198 28.851 48.9002 29.7449 48.411C29.1831 48.199 28.5147 48.0074 27.8463 47.8688C27.5798 48.0441 27.3133 48.2235 27.0508 48.4029C24.8201 49.9152 22.5115 51.4764 20.0348 49.1448L20.2029 48.8186C20.6786 48.9124 21.1338 48.892 21.5725 48.7942C20.4695 48.8146 19.3008 48.5944 18.0584 48.2235C17.3982 49.2018 16.2869 49.5483 14.7533 49.2548L14.5155 49.21L14.618 48.9899C14.6426 48.9328 14.6754 48.8757 14.7082 48.8227C14.0645 48.8798 13.4904 48.6964 12.9614 48.2765L12.7933 48.142L12.8261 48.1094C12.3832 48.1257 11.9773 47.9748 11.6041 47.6895L11.477 47.5917L11.5549 47.449C11.5672 47.4245 11.5836 47.4001 11.5959 47.3756C10.9357 47.3104 10.5011 46.8824 10.1566 46.4543L10.0459 46.3158L10.1772 46.1935C10.3166 46.063 10.4642 45.953 10.6241 45.8673C10.0254 45.5046 9.66868 45.0643 9.58667 44.5751L9.55797 44.3999L9.73019 44.3591C10.2346 44.2409 10.6651 44.2572 11.0506 44.408C11.0383 44.3265 11.0301 44.2409 11.0301 44.1594V44.0167L11.1695 43.9759C11.9117 43.768 12.4242 43.8332 12.8671 44.2083C12.8753 44.1716 12.8876 44.1349 12.8999 44.1023L12.9532 43.9433L13.1172 43.9718C13.5478 44.0493 13.9209 44.2246 14.2285 44.4977H14.413C15.1142 44.4977 15.6637 44.7341 16.1147 45.2396C16.1229 45.1947 16.1352 45.1458 16.1475 45.1051L16.2172 44.8646L16.4305 44.995C17.7426 45.7899 18.329 46.7519 18.1814 47.8607C19.9159 48.3866 21.4659 48.5985 22.897 48.2316L22.9052 48.2602C23.3522 48.0156 23.795 47.718 24.2461 47.4123C24.2338 47.4123 24.2215 47.4123 24.2092 47.4123C21.8678 47.4123 19.6289 46.3239 17.2711 45.1784C14.5565 43.8577 11.7518 42.4962 8.74197 42.912L8.56974 42.5981C8.90599 42.2149 9.22993 41.8807 9.55387 41.5912L9.23403 41.0817C8.08178 41.4608 6.97874 41.0572 5.9454 39.8873L5.78548 39.7039L6.00281 39.5897C6.04792 39.5653 6.09712 39.5449 6.14633 39.5245C5.61326 39.1658 5.26062 38.6889 5.08429 38.0774L5.02689 37.8777L5.1417 37.8573C4.77265 37.6045 4.52662 37.2458 4.379 36.7607L4.3298 36.5977L4.48562 36.5284C4.50202 36.5202 4.51842 36.5121 4.53892 36.508C4.15757 36.1493 3.98535 35.6438 3.98535 34.9141V34.747L4.14937 34.7225C4.3339 34.694 4.51842 34.694 4.70294 34.7185C4.43641 34.0744 4.42001 33.5078 4.65784 33.0594L4.73985 32.9004L4.90387 32.9738C5.36723 33.1817 5.69117 33.4466 5.9167 33.8257C5.95771 33.7401 6.00691 33.6627 6.06022 33.5893L6.15043 33.467L6.28985 33.5282C6.80242 33.7524 7.29858 34.0499 7.4913 34.7103C7.50771 34.694 7.52821 34.6818 7.54461 34.6655L7.67583 34.5676L7.79474 34.6859C8.15149 35.0405 8.31961 35.4237 8.39342 35.7865L8.54514 35.9047C9.10281 36.3368 9.39805 36.8423 9.46776 37.4945C9.49646 37.47 9.52517 37.4496 9.55387 37.4252H9.55797C9.22173 36.4346 9.0372 35.2973 8.93469 34.0418C7.75374 33.7483 7.02384 32.8433 6.76551 31.3595L6.7245 31.1272L6.96234 31.1394C7.01154 31.1435 7.05665 31.1476 7.10585 31.1557C6.77371 30.5239 6.7204 29.9573 6.91723 29.3621L6.97874 29.1746L7.04025 29.195C6.86392 28.7874 6.83522 28.3634 6.94183 27.8824L6.96234 27.7193L7.13456 27.7397C7.15506 27.7438 7.17146 27.7438 7.19197 27.7479C7.03205 27.2587 7.15096 26.7247 7.54051 26.1255L7.61842 26.0032L7.75784 26.048C7.92186 26.101 8.07358 26.1744 8.2171 26.2722C8.30321 25.62 8.58204 25.0982 9.0085 24.8088L9.17252 24.6947L9.27913 24.8618C9.57027 25.3184 9.70969 25.7097 9.71789 26.0969C9.7917 26.048 9.86961 26.0032 9.94752 25.9665L10.0869 25.9013L10.1813 26.0236C10.5872 26.5535 10.8127 27.0264 10.661 27.6623C10.6897 27.6582 10.7184 27.6541 10.7471 27.65L10.9193 27.6297L10.9563 27.8009C11.0506 28.2493 11.0342 28.6569 10.9029 29.0442L10.9768 29.2439C11.2228 29.9002 11.2105 30.4709 10.9234 31.0742C10.9645 31.066 11.0055 31.062 11.0465 31.0579L11.2884 31.0375L11.2515 31.278C11.0178 32.8107 10.3945 33.6912 9.29144 34.0255C9.52517 36.8097 10.1607 38.9742 11.9937 40.2012C14.1465 39.6957 16.1721 41.045 18.657 42.7041C20.5843 43.9922 22.7699 45.4475 25.5869 46.5155C27.1861 45.5331 29.0191 44.8564 31.4015 46.1323C33.7839 44.8564 35.6168 45.5331 37.216 46.5155C40.0331 45.4475 42.2187 43.9922 44.1459 42.7041C46.6309 41.045 48.6565 39.6957 50.8093 40.2012C52.6463 38.9742 53.2819 36.8097 53.5115 34.0255C52.4085 33.6912 51.7852 32.8107 51.5515 31.278L51.5146 31.0375L51.7565 31.0579C51.7975 31.062 51.8385 31.066 51.8795 31.0742C51.5925 30.4709 51.5802 29.9002 51.8262 29.2439L51.9 29.0442C51.7688 28.6569 51.7524 28.2533 51.8467 27.8009L51.8836 27.6297L52.0559 27.65C52.0846 27.6541 52.1133 27.6582 52.142 27.6623C51.9902 27.0264 52.2158 26.5494 52.6217 26.0236L52.716 25.9013L52.8555 25.9665C52.9334 26.0032 53.0113 26.048 53.0851 26.0969C53.0933 25.7097 53.2368 25.3184 53.5238 24.8618L53.6305 24.6947L53.7945 24.8088C54.2209 25.1023 54.4998 25.62 54.5859 26.2722C54.7253 26.1744 54.8811 26.0969 55.0451 26.0439L55.1846 25.9991L55.2625 26.1214C55.6561 26.7206 55.7709 27.2546 55.611 27.7438C55.6315 27.7397 55.6479 27.7397 55.6684 27.7356L55.8406 27.7153L55.8776 27.8865C55.9842 28.3675 55.9514 28.7914 55.7791 29.1991L55.8406 29.1787L55.9022 29.3621C56.1031 29.9573 56.0457 30.5198 55.7135 31.1557C55.7627 31.1476 55.8119 31.1435 55.857 31.1394L56.0949 31.1272L56.0539 31.3595C55.7955 32.8433 55.0656 33.7483 53.8847 34.0418C53.7822 35.2973 53.5977 36.4305 53.2614 37.4211L53.2655 37.4252C53.2942 37.4456 53.3229 37.47 53.3516 37.4904C53.4213 36.8382 53.7166 36.3327 54.2742 35.9006L54.426 35.7824C54.4998 35.4196 54.6679 35.0364 55.0246 34.6818L55.1436 34.5636L55.2748 34.6614C55.2953 34.6736 55.3117 34.6899 55.3322 34.7062C55.5249 34.0499 56.017 33.7483 56.5336 33.5241L56.6731 33.4629L56.7633 33.5852C56.8166 33.6586 56.8658 33.7401 56.9068 33.8217C57.1323 33.4548 57.4563 33.1817 57.9155 32.9656L58.0795 32.8882L58.1656 33.0512C58.3994 33.4915 58.383 34.0703 58.1164 34.7144C58.301 34.6899 58.4855 34.6899 58.67 34.7144L58.834 34.7389V34.906C58.834 35.6357 58.6618 36.1452 58.2805 36.4998C58.2969 36.508 58.3174 36.5162 58.3338 36.5202L58.4896 36.5895L58.4404 36.7526C58.2969 37.2295 58.0467 37.5923 57.6818 37.8491L57.7925 37.8695L57.7351 38.0692C57.5547 38.6807 57.2061 39.1536 56.6731 39.5164C56.7223 39.5367 56.7674 39.5571 56.8125 39.5816L57.0298 39.6957L56.8699 39.8792C55.8365 41.0532 54.7335 41.4526 53.5813 41.0735L53.2614 41.5831C53.5813 41.8725 53.9093 42.2068 54.2455 42.5899L54.0733 42.9038C51.0635 42.484 48.2588 43.8495 45.5442 45.1703C43.1864 46.3158 40.9475 47.4041 38.6061 47.4041C38.5938 47.4041 38.5815 47.4041 38.5733 47.4041C39.0244 47.7099 39.4672 48.0074 39.9142 48.252L39.9224 48.2235C41.3576 48.5904 42.9035 48.3784 44.638 47.8525C44.4863 46.7438 45.0768 45.7817 46.3889 44.9869L46.5939 44.8605L46.6719 45.0888C46.6883 45.1336 46.7006 45.1825 46.7129 45.2274C47.1639 44.726 47.7134 44.4895 48.4105 44.4895H48.6073C48.9189 44.2123 49.2798 44.0411 49.7063 43.9637L49.8703 43.9352L49.9195 44.0941C49.9318 44.1308 49.94 44.1675 49.9523 44.2001C50.3951 43.8251 50.9077 43.7599 51.6499 43.9678L51.7893 44.0085V44.1512C51.7893 44.2327 51.7811 44.3143 51.7688 44.3999C52.1543 44.245 52.5848 44.2286 53.0892 44.3509L53.2655 44.3917L53.2368 44.567C53.1548 45.0562 52.7981 45.5005 52.1994 45.8592C52.3552 45.9489 52.5069 46.0549 52.6463 46.1853L52.7775 46.3076L52.6668 46.4462C52.3224 46.8742 51.8877 47.2982 51.2276 47.3675C51.2439 47.3919 51.2563 47.4164 51.2686 47.4408L51.3465 47.5835L51.2193 47.6813C50.8503 47.9667 50.4361 48.1012 49.9974 48.1012L50.0302 48.1338L49.8621 48.2683C49.3331 48.6882 48.7549 48.8676 48.1152 48.8146C48.148 48.8676 48.1809 48.9246 48.2055 48.9817L48.308 49.2018L48.0701 49.2467C46.5365 49.5361 45.4253 49.1937 44.7651 48.2153C43.5227 48.5904 42.3581 48.8105 41.251 48.786C41.6938 48.8879 42.1449 48.9083 42.6205 48.8105L42.7887 49.1366C40.3119 51.4683 38.0033 49.907 35.7727 48.3947C35.5061 48.2153 35.2437 48.036 34.9731 47.8607C34.2801 47.9993 33.5666 48.1909 32.9146 48.4069C33.8864 48.892 34.7803 49.5239 35.6455 50.3269L35.8096 50.4777L34.7926 51.2808ZM27.6003 50.4573L28.0063 50.7753C28.8674 49.9804 29.995 49.2548 31.3605 48.623L31.4343 48.5904L31.5122 48.623C32.7301 49.1081 33.7552 49.7766 34.8172 50.7794L35.2191 50.4655C34.3129 49.6502 33.3697 49.0265 32.3364 48.5659L32.3487 48.2113C33.0171 47.9667 33.7675 47.7466 34.5138 47.5794C34.3908 47.502 34.2637 47.4286 34.1365 47.3552C33.0786 47.5631 32.2257 47.8648 31.504 48.1297L31.4261 48.1583L31.3523 48.1175C30.6757 47.7669 29.5398 47.5101 28.6828 47.3512C28.5557 47.4245 28.4286 47.4979 28.3015 47.5794C29.0273 47.7506 29.7244 47.9748 30.2779 48.2153L30.6552 48.3784L30.2861 48.5618C29.3389 49.0265 28.4819 49.6339 27.6003 50.4573ZM20.7647 49.2589C22.8355 50.7875 24.7832 49.4709 26.8294 48.0849C28.0719 47.2452 29.3471 46.381 30.6675 46.1935C28.199 45.1621 26.4029 46.3891 24.6643 47.5835C23.3932 48.4558 22.1753 49.2956 20.7647 49.2589ZM32.1519 46.1935C33.4723 46.3769 34.7475 47.2411 35.99 48.0849C38.0402 49.4749 39.9839 50.7875 42.0547 49.2589C42.0342 49.2589 42.0137 49.2589 41.9891 49.2589C40.599 49.2589 39.4057 48.4436 38.1551 47.5835C36.4164 46.3932 34.6204 45.1621 32.1519 46.1935ZM15.0978 48.9206C16.2705 49.0877 17.1357 48.8105 17.6729 48.1012C17.4761 48.036 17.2752 47.9708 17.0742 47.9015C16.1475 48.1012 15.434 48.4762 15.0978 48.9206ZM45.1506 48.0971C45.6877 48.8105 46.5529 49.0836 47.7257 48.9165C47.3895 48.4722 46.676 48.1012 45.7533 47.8933C45.5483 47.9667 45.3474 48.036 45.1506 48.0971ZM47.779 48.3784C48.4105 48.5211 48.9436 48.4355 49.4438 48.1053C48.9764 47.6976 48.2793 47.3022 47.5166 47.237C47.1311 47.3919 46.7498 47.5346 46.3766 47.6732C46.9589 47.8566 47.4346 48.1134 47.7667 48.4151L47.779 48.3784ZM13.3756 48.1053C13.8758 48.4355 14.4089 48.5211 15.0404 48.3784L15.0486 48.4151C15.3848 48.1134 15.8564 47.8607 16.4387 47.6773C16.0655 47.5387 15.6842 47.3919 15.2987 47.2411C14.5401 47.3022 13.843 47.6976 13.3756 48.1053ZM46.3684 45.4638C45.372 46.1282 44.9291 46.8783 45.0193 47.7425C45.2367 47.6732 45.4581 47.5957 45.6836 47.5183C46.065 46.915 46.4463 46.1201 46.3684 45.4638ZM17.1357 47.5224C17.3613 47.5998 17.5786 47.6773 17.8 47.7466C17.8902 46.8824 17.4515 46.1364 16.4592 45.4719C16.41 46.0223 16.6437 46.7356 17.1357 47.5224ZM29.22 47.0658C29.9827 47.2207 30.8561 47.4449 31.4507 47.7384C32.0617 47.5142 32.767 47.2696 33.6158 47.074C32.8859 46.7152 32.1519 46.4951 31.4261 46.5481V46.5522C31.4179 46.5522 31.4097 46.5522 31.4015 46.5522V46.5481C30.6716 46.4951 29.9417 46.7152 29.22 47.0658ZM11.9732 47.4816C12.3832 47.7425 12.8343 47.7914 13.3469 47.6324C13.7077 47.3634 14.1506 47.1147 14.6426 46.972C14.2982 46.8335 13.9537 46.6908 13.6011 46.5481C12.8712 46.6989 12.293 47.0332 11.9732 47.4816ZM49.4684 47.6324C49.981 47.7914 50.4361 47.7425 50.8421 47.4816C50.5264 47.0291 49.9441 46.6949 49.2101 46.5481C48.8574 46.6908 48.5089 46.8335 48.1686 46.972C48.6647 47.1188 49.1117 47.3634 49.4684 47.6324ZM15.6145 46.9517C15.9425 47.0821 16.2623 47.2044 16.5781 47.3185C16.2951 46.7886 16.127 46.2872 16.0819 45.8429C15.6965 45.2477 15.2413 44.9461 14.6303 44.889C14.6385 44.9257 14.6467 44.9665 14.6549 45.0072C14.6672 45.0235 14.6754 45.0439 14.6877 45.0602L14.6713 45.0725C14.8272 45.7288 15.1593 46.4054 15.5898 46.915L15.6145 46.9517ZM46.7539 45.8184C46.7088 46.3239 46.4996 46.8498 46.2454 47.3145C46.557 47.1962 46.8769 47.074 47.2049 46.9476L47.2336 46.9109C47.6642 46.3973 47.9963 45.7165 48.1522 45.0602L48.1357 45.048C48.144 45.0358 48.1562 45.0195 48.1645 45.0072C48.1727 44.9665 48.1809 44.9257 48.1891 44.8849C47.5863 44.9461 47.1352 45.2396 46.7539 45.8184ZM9.86141 42.4513C12.5309 42.4513 15.0158 43.658 17.431 44.832C19.9651 46.063 22.3557 47.2289 24.8365 47.0006C24.9555 46.9231 25.0744 46.8416 25.1933 46.7642C22.4623 45.6921 20.3342 44.2735 18.4479 43.0139C14.7287 40.5355 12.4365 39.0027 9.18072 42.4758C9.41035 42.4595 9.63588 42.4513 9.86141 42.4513ZM37.9828 47.0006C40.4637 47.2289 42.8584 46.063 45.3884 44.832C48.0045 43.5601 50.6986 42.2475 53.6387 42.4758C50.3828 39.0068 48.0906 40.5314 44.3715 43.0139C42.4852 44.2735 40.357 45.6921 37.6261 46.7642C37.745 46.8416 37.8639 46.9231 37.9828 47.0006ZM10.5708 46.3524C11.0014 46.8416 11.3909 47.025 11.8871 46.9924C12.1782 46.6989 12.5637 46.4666 13.027 46.3076C12.7195 46.1812 12.4037 46.0549 12.088 45.9244L12.0798 45.9896C11.4729 45.9203 10.9768 46.0386 10.5708 46.3524ZM50.9323 46.9965C51.4326 47.0291 51.8221 46.8457 52.2486 46.3565C51.8426 46.0426 51.3465 45.9203 50.7396 45.9937L50.7314 45.9285C50.4156 46.0589 50.0999 46.1853 49.7924 46.3117C50.2557 46.4666 50.6453 46.703 50.9323 46.9965ZM48.5212 45.1703C48.3982 45.688 48.1686 46.2179 47.8774 46.6826C48.2096 46.5481 48.5499 46.4095 48.8984 46.2668L48.9518 46.2057C49.3454 45.7736 49.7268 45.0562 49.6037 44.3876C49.165 44.5058 48.8246 44.7504 48.5212 45.1703ZM13.925 46.2668C14.2736 46.4095 14.6098 46.5481 14.9461 46.6826C14.6508 46.2179 14.4212 45.6839 14.2982 45.1621C14.0275 44.7627 13.6708 44.5099 13.2197 44.3917C13.0967 45.0602 13.4781 45.7777 13.8717 46.2098L13.925 46.2668ZM12.2233 45.5698C12.5596 45.7043 12.8917 45.8429 13.2197 45.9774C12.9778 45.5861 12.8056 45.1214 12.8056 44.6485L12.781 44.6689C12.416 44.2572 12.047 44.1553 11.4155 44.3061C11.477 44.7219 11.7723 45.1947 12.2233 45.5698ZM50.0138 44.6485C50.0138 45.1214 49.8416 45.5861 49.5996 45.9774C49.9277 45.8429 50.2598 45.7084 50.5961 45.5698C51.0471 45.1947 51.3465 44.726 51.4039 44.3061C50.7724 44.1553 50.4033 44.2572 50.0384 44.6689L50.0138 44.6485ZM51.1332 45.5902C51.3547 45.5942 51.5597 45.6228 51.7524 45.6798C52.306 45.3986 52.675 45.0521 52.8145 44.6893C52.3224 44.6077 51.9492 44.6852 51.5966 44.942C51.4818 45.1662 51.326 45.3863 51.1332 45.5902ZM10.0049 44.6893C10.1443 45.0562 10.5093 45.3986 11.067 45.6798C11.2597 45.6268 11.4688 45.5942 11.6861 45.5902C11.4934 45.3863 11.3335 45.1662 11.2228 44.942C10.8701 44.6852 10.497 44.6077 10.0049 44.6893ZM9.52927 40.8493L9.83681 41.3385C10.4191 40.8616 10.9809 40.5355 11.5344 40.3357C10.9645 39.9077 10.5134 39.39 10.1566 38.7908C10.2469 39.6183 10.0377 40.299 9.52927 40.8493ZM51.285 40.3357C51.8385 40.5355 52.4003 40.8616 52.9826 41.3385L53.2901 40.8493C52.7817 40.299 52.5766 39.6183 52.6627 38.7908C52.306 39.39 51.8549 39.9077 51.285 40.3357ZM53.8068 40.7433C54.7007 41.0002 55.5741 40.6944 56.4106 39.8343C55.8776 39.6957 55.0861 39.8343 54.225 40.2257L54.0979 40.2827L53.8068 40.7433ZM6.40876 39.8343C7.24527 40.6944 8.11868 41.0002 9.0126 40.7433L8.72146 40.2786L8.59435 40.2216C7.73323 39.8343 6.94183 39.6957 6.40876 39.8343ZM8.88958 39.8302L9.31604 40.511C9.85731 39.8669 9.93522 39.0313 9.56617 37.9225C9.52927 37.9633 9.49236 38.0081 9.45956 38.057C9.45956 38.0611 9.45956 38.0652 9.45956 38.0692H9.45136C9.16842 38.4647 8.9757 39.0598 8.88958 39.8302ZM53.2532 37.9225C52.8801 39.0353 52.9621 39.871 53.4992 40.511L53.9257 39.8302C53.8396 39.0598 53.6469 38.4647 53.368 38.0692H53.3598C53.3598 38.0652 53.3598 38.0611 53.3598 38.057C53.327 38.0081 53.2901 37.9633 53.2532 37.9225ZM55.0656 38.7419L54.4547 39.7161C55.0779 39.4797 55.6561 39.3737 56.1318 39.4063C56.7223 39.1128 57.1036 38.7174 57.3127 38.1793C56.591 38.1019 55.7258 38.3057 55.1066 38.7133L55.0656 38.7419ZM6.86392 39.4022C7.30678 39.4022 7.81935 39.5082 8.36882 39.7161L7.71683 38.7133C7.09355 38.3098 6.23244 38.1059 5.50665 38.1793C5.71577 38.7174 6.09712 39.1087 6.6876 39.4063C6.74501 39.4022 6.80241 39.4022 6.86392 39.4022ZM8.00797 38.4239L8.57384 39.3288C8.66406 38.8397 8.81988 38.3342 9.07821 37.9307C9.10281 37.2581 8.91419 36.773 8.46313 36.3572C8.45083 36.3816 8.43853 36.4102 8.42622 36.4387C8.42622 36.4713 8.42623 36.508 8.42212 36.5406H8.38112C8.14739 37.0909 8.00797 37.7839 8.00797 38.4239ZM53.7371 37.9307C53.9995 38.3342 54.1512 38.8397 54.2414 39.3288L54.8073 38.4239C54.8114 37.7839 54.6679 37.0909 54.4301 36.5365H54.3891C54.3891 36.5039 54.385 36.4672 54.385 36.4346C54.3727 36.4061 54.3604 36.3816 54.348 36.3572C53.9011 36.773 53.7125 37.2581 53.7371 37.9307ZM56.0621 37.1521L55.4716 38.0937C55.9555 37.894 56.5008 37.7839 57.0093 37.7839C57.5137 37.6045 57.8458 37.2988 58.0344 36.8178C57.4768 36.6507 56.7674 36.7689 56.0621 37.1521ZM5.84289 37.7839C6.34316 37.788 6.87622 37.898 7.35189 38.0937L6.76141 37.1521C6.05202 36.7689 5.34673 36.6507 4.78906 36.8178C4.97768 37.307 5.30982 37.6086 5.84289 37.7839ZM7.06075 36.9156L7.65122 37.8614C7.70863 37.3314 7.84395 36.8056 8.04078 36.3531C8.04078 35.8232 7.90956 35.4318 7.62252 35.0935C7.24117 35.4767 7.02384 36.1656 7.06075 36.9156ZM54.7745 36.3531C54.9713 36.8015 55.1107 37.3273 55.1641 37.8614L55.7586 36.9156C55.7955 36.1656 55.5823 35.4767 55.1928 35.0935C54.9057 35.4318 54.7745 35.8232 54.7745 36.3531ZM57.0011 35.652L56.427 36.5691C56.9191 36.3898 57.4029 36.3286 57.8335 36.3898C58.2395 36.1289 58.4322 35.7335 58.4609 35.0935C57.9606 35.0731 57.4973 35.281 57.0462 35.705L57.0011 35.652ZM5.31802 36.3653C5.65837 36.3653 6.02331 36.4346 6.38826 36.5691L5.81009 35.6479L5.76088 35.6968C5.34263 35.281 4.84646 35.069 4.3503 35.0894C4.379 35.7294 4.57173 36.1248 4.97768 36.3857C5.09249 36.3694 5.20321 36.3653 5.31802 36.3653ZM6.14633 35.4563L6.6999 36.3368C6.75731 35.8476 6.91723 35.4033 7.15506 35.065C7.08535 34.5432 6.83932 34.2293 6.26935 33.9562C6.06432 34.3271 6.01921 34.8652 6.14633 35.4563ZM55.6643 35.065C55.9022 35.4033 56.0621 35.8476 56.1195 36.3368L56.6731 35.4563C56.8002 34.8652 56.7551 34.3271 56.55 33.9562C55.9842 34.2293 55.7381 34.5432 55.6643 35.065ZM57.0913 34.3679C57.1323 34.6125 57.1405 34.8774 57.1118 35.1546C57.2881 35.0283 57.4686 34.9264 57.6531 34.853C57.9401 34.2986 58.0303 33.7972 57.9155 33.4181C57.5055 33.6505 57.2512 33.9399 57.0913 34.3679ZM5.1622 34.8448C5.35083 34.9182 5.53125 35.016 5.70757 35.1424C5.67887 34.8652 5.68707 34.6043 5.72808 34.3638C5.55995 33.9154 5.31802 33.6342 4.90797 33.414C4.79316 33.7931 4.87927 34.2905 5.1622 34.8448ZM53.9749 33.0023C53.9626 33.2184 53.9503 33.4344 53.938 33.6464C54.8155 33.3773 55.3896 32.6803 55.6438 31.5715C55.1272 31.7223 54.4998 32.2563 53.9749 33.0023ZM7.17556 31.5715C7.4298 32.6803 8.00387 33.3773 8.88138 33.6464C8.86498 33.4344 8.85268 33.2224 8.84448 33.0023V32.9982C8.31961 32.2563 7.69223 31.7223 7.17556 31.5715ZM51.9902 31.49C52.2199 32.6518 52.7201 33.3407 53.5526 33.626C53.569 33.3896 53.5812 33.1491 53.5936 32.9045C53.0072 32.1341 52.4577 31.649 51.9902 31.49ZM9.22583 32.9086C9.23813 33.1531 9.25043 33.3937 9.26683 33.6301C10.0992 33.3407 10.5995 32.6518 10.8291 31.4941C10.3576 31.649 9.8122 32.1341 9.22583 32.9086ZM54.0323 31.0823C54.0241 31.5104 54.0159 31.9302 53.9995 32.3419C54.3891 31.8813 54.8114 31.5348 55.2133 31.3351L55.1928 31.3188C55.5946 30.7032 55.7258 30.2019 55.611 29.6842C55.5618 29.7045 55.5167 29.729 55.4716 29.7494C55.4634 29.7575 55.4552 29.7698 55.447 29.7779L55.4347 29.7657C54.8565 30.0633 54.3399 30.5443 54.0323 31.0823ZM7.60612 31.331C8.00797 31.5307 8.43033 31.8772 8.81988 32.3379C8.80757 31.9302 8.79527 31.5063 8.78707 31.0783C8.47953 30.5443 7.96287 30.0592 7.38879 29.7657L7.37649 29.7779C7.36829 29.7698 7.36009 29.7575 7.35189 29.7494C7.30678 29.7249 7.25757 29.7045 7.21247 29.6842C7.09765 30.2059 7.22887 30.7073 7.63072 31.3188L7.60612 31.331ZM9.17252 31.2658C9.18072 31.6245 9.18892 31.9792 9.20122 32.3256C9.60718 31.8406 9.99673 31.4941 10.3699 31.2862C10.7635 30.6869 10.8619 30.1978 10.6979 29.6026C10.091 30.0103 9.52927 30.6136 9.20122 31.2209L9.17252 31.2658ZM52.4495 31.2821C52.8186 31.49 53.2122 31.8365 53.6182 32.3216C53.6305 31.9751 53.6387 31.6245 53.6469 31.2658L53.6223 31.2209C53.2942 30.6136 52.7324 30.0103 52.1256 29.6026C51.9574 30.1937 52.0559 30.6829 52.4495 31.2821ZM9.15202 29.464C9.15612 29.835 9.15612 30.2019 9.16432 30.5606C9.47186 30.1366 9.86551 29.7371 10.292 29.4192C10.5831 28.9912 10.6856 28.5672 10.6159 28.0618C9.95982 28.2248 9.44726 28.8526 9.17252 29.4192L9.15202 29.464ZM52.5274 29.4192C52.9539 29.7371 53.3475 30.1366 53.6551 30.5606C53.6592 30.2019 53.6633 29.835 53.6674 29.464L53.6469 29.4233C53.3721 28.8566 52.8596 28.2289 52.2035 28.0658C52.1338 28.5672 52.2363 28.9912 52.5274 29.4192ZM54.0487 29.3295C54.0446 29.6923 54.0446 30.0469 54.0405 30.4016C54.3604 30.0184 54.7663 29.6842 55.2133 29.4518C55.5126 29.0319 55.6192 28.6324 55.5536 28.1514C55.0041 28.2819 54.4711 28.6977 54.0487 29.3295ZM7.60612 29.4477C8.05308 29.6842 8.45903 30.0143 8.77887 30.4016C8.77477 30.051 8.77067 29.6923 8.77067 29.3295C8.35242 28.6977 7.81525 28.2778 7.26988 28.1514C7.20017 28.6284 7.30678 29.0319 7.60612 29.4477ZM9.13562 27.6011C9.13972 27.9802 9.14382 28.3553 9.14792 28.7221C9.42265 28.343 9.7876 27.9925 10.2223 27.8009C10.415 27.2913 10.3535 26.9163 9.97622 26.3904C9.59078 26.6228 9.27914 27.0671 9.13562 27.6011ZM52.5971 27.7968C53.0318 27.9884 53.4008 28.3389 53.6715 28.718C53.6756 28.3512 53.6797 27.9761 53.6838 27.597C53.5361 27.063 53.2286 26.6228 52.8391 26.3823C52.4659 26.9122 52.4044 27.2872 52.5971 27.7968ZM54.0692 27.646C54.0651 28.0006 54.061 28.3471 54.0569 28.6936C54.3932 28.3104 54.7745 28.0291 55.1723 27.8742L55.16 27.8661C55.3978 27.4585 55.3609 27.01 55.041 26.4638C54.6187 26.6513 54.2988 27.0712 54.1225 27.6623L54.0692 27.646ZM7.64712 27.8702C8.04488 28.0291 8.43033 28.3104 8.76247 28.6895C8.75837 28.343 8.75427 27.9965 8.75017 27.6419L8.69686 27.6582C8.52464 27.0671 8.2007 26.6473 7.77834 26.4597C7.4585 27.0019 7.41749 27.4503 7.65943 27.862L7.64712 27.8702ZM8.57384 26.5983C8.69686 26.7451 8.80757 26.9163 8.89779 27.112C9.0003 26.8755 9.13562 26.6636 9.29144 26.4801C9.39395 26.0766 9.32834 25.7178 9.06591 25.2531C8.77477 25.5466 8.59845 26.0195 8.57384 26.5983ZM53.5279 26.4801C53.6838 26.6636 53.8191 26.8755 53.9216 27.112C54.0118 26.9204 54.1225 26.7451 54.2455 26.5983C54.225 26.0195 54.0487 25.5466 53.7535 25.2531C53.4869 25.7178 53.4254 26.0766 53.5279 26.4801ZM40.6974 46.3117L40.6031 45.9407C41.9891 45.5942 43.4734 44.7015 44.9045 43.8414C46.8523 42.6715 48.6934 41.5668 50.2188 41.8277L50.1532 42.2027C48.7631 41.9663 46.9876 43.0343 45.1055 44.1634C43.6498 45.0439 42.1408 45.9489 40.6974 46.3117ZM22.122 46.3117C20.6786 45.9489 19.1737 45.0439 17.7139 44.1675C15.8318 43.0343 14.048 41.9663 12.6662 42.2027L12.6006 41.8277C14.1301 41.5627 15.9671 42.6715 17.9148 43.8414C19.3459 44.7015 20.8303 45.5942 22.2163 45.9407L22.122 46.3117Z" fill="white"/>
<path d="M6.96274 29.1624L6.84383 28.4001M7.02425 27.752L6.96684 26.7533M7.64343 26.0521L7.73364 25.0534M9.14832 24.7599L9.26724 23.8509M9.94793 25.8157L10.0053 25.0534M10.8336 27.6949L11.0387 26.9041M10.9485 29.1053L11.215 28.3716M5.04369 37.8492L4.39581 37.2051M4.36711 36.5896L3.80533 35.7091M4.07187 34.796L3.65771 33.944M4.71975 32.9208L4.36711 32.0403M5.96221 33.4752L5.54806 32.7129M7.64343 34.6818L7.17187 33.6546M8.47174 35.8232L8.29541 34.9427M12.7814 48.1502L12.0433 47.9749M11.4815 47.5346L10.5384 47.2126M10.1817 46.275L9.29594 45.8633M9.53377 44.3958L8.76697 43.9556M10.8623 44.0738L10.153 43.8088M12.9577 44.0126L12.3098 43.4827M14.2863 44.4529L13.7245 43.923" stroke="white" stroke-width="0.45551" stroke-miterlimit="2.6131"/>
<path fill-rule="evenodd" clip-rule="evenodd" d="M38.5537 36.6181L39.382 36.2675C39.5009 36.1493 39.6198 36.0922 39.6772 36.0637C39.7961 36.0066 39.915 35.9455 39.9724 35.8599H40.0011C40.0011 35.9495 39.9724 35.9781 39.9437 36.0066C39.9437 36.0351 39.8535 36.0963 39.8535 36.1248C39.7346 36.3001 39.5296 36.4469 39.2343 36.5936C39.1154 36.6507 38.9678 36.7118 38.8202 36.7974C38.6152 36.8871 38.4347 36.9442 38.3486 36.9727C38.201 37.0909 38.0247 37.1765 37.9345 37.2662C37.9345 37.2947 37.8771 37.3559 37.8771 37.413C37.8484 37.47 37.8484 37.5026 37.8484 37.5312C37.8484 37.7065 37.8484 37.8532 37.8484 38C37.8484 38.1752 37.8771 38.322 37.8771 38.4687C37.8771 38.5584 37.9345 38.6155 37.9673 38.6726C38.0247 38.7622 38.0575 38.8193 38.1436 38.8478H38.201C38.2584 38.644 38.3486 38.4973 38.3773 38.3791C38.4962 38.2038 38.5824 38.057 38.7013 37.9673C38.7013 37.9673 38.7587 37.9673 38.7915 37.9673C38.8202 37.9388 38.8817 37.9388 38.8817 37.9388C38.9719 37.9388 39.058 37.9673 39.1195 37.9673C39.2384 38.0244 39.3574 38.057 39.4722 38.0856L39.7387 38.1752C39.7674 38.2038 39.7674 38.2038 39.7387 38.2649C39.6485 38.322 39.4435 38.5299 39.2384 38.7949C39.0621 39.0313 38.853 39.178 38.7054 39.2636C38.5291 39.4104 38.2912 39.5001 38.0247 39.5001C37.9673 39.443 37.8771 39.4104 37.8484 39.3248C37.791 39.2677 37.7582 39.178 37.7582 39.0884C37.7007 39.2351 37.6392 39.3533 37.5818 39.4389C37.5244 39.5286 37.4629 39.6427 37.3768 39.7324C37.3194 39.9362 37.2866 40.083 37.2579 40.1727C37.2292 40.2909 37.1677 40.4376 37.0816 40.5558C36.9914 40.5844 36.9052 40.6129 36.815 40.6455C36.6674 40.7026 36.5485 40.7352 36.3722 40.7637C36.3722 40.7637 36.3435 40.7637 36.282 40.7637C36.2246 40.7923 36.1631 40.7923 36.1343 40.7923C36.1056 40.7637 36.1056 40.7352 36.1343 40.7026C36.2246 40.6455 36.3107 40.5844 36.4009 40.5273C36.5198 40.4702 36.6387 40.4376 36.6961 40.352C36.815 40.3235 36.8724 40.2623 36.9627 40.2338C37.0816 40.1767 37.139 40.0871 37.1677 40.03C37.1677 40.0015 37.1677 39.9729 37.1677 39.9729C37.1677 39.9159 37.1677 39.8262 37.139 39.7976C37.1103 39.7976 37.0816 39.7691 37.0816 39.7691C36.9914 39.7691 36.9627 39.7691 36.9052 39.7691C36.8765 39.7691 36.815 39.7691 36.7576 39.7406C36.7289 39.7406 36.7002 39.6835 36.7002 39.6509C36.6715 39.6224 36.6715 39.5938 36.6715 39.5041C36.6715 39.4471 36.7002 39.3574 36.7289 39.2392C36.7576 39.121 36.8191 39.0354 36.8191 38.9457C36.8478 38.9171 36.8765 38.8886 36.8765 38.856C36.8765 38.8275 36.9052 38.8275 36.9339 38.7989C36.9627 38.7989 36.9914 38.7989 37.0242 38.7989C37.1144 38.7989 37.1431 38.7989 37.2005 38.856C37.2292 38.9131 37.2907 38.9742 37.2907 39.0313C37.3194 39.121 37.3809 39.178 37.3809 39.2677C37.4096 39.2677 37.4096 39.2677 37.4096 39.2677C37.4383 39.2677 37.4383 39.2392 37.467 39.2392C37.5244 39.1821 37.5859 39.121 37.5859 39.0639C37.6433 38.9742 37.6761 38.8601 37.6761 38.7704C37.6761 38.7419 37.6761 38.6807 37.6761 38.6236C37.6761 38.5951 37.6761 38.5666 37.6761 38.534C37.6761 38.4769 37.6761 38.3587 37.6761 38.269C37.6761 38.1222 37.6761 38.0326 37.6761 37.9755C37.6761 37.947 37.6761 37.8288 37.6761 37.7717C37.6761 37.7431 37.6761 37.682 37.6761 37.6535C37.7336 37.417 37.7951 37.2418 37.8812 37.1235C37.9386 37.0053 38.0288 36.9197 38.119 36.8586L38.5537 36.6181ZM39.3246 38.3791L39.1769 38.3179L38.853 38.2282C38.8243 38.2282 38.7628 38.2282 38.7628 38.2282C38.7054 38.2282 38.6726 38.2568 38.6439 38.2568C38.6152 38.3138 38.5865 38.375 38.525 38.4606C38.4962 38.4891 38.4347 38.5788 38.406 38.6073C38.406 38.6644 38.3773 38.7541 38.3486 38.7826C38.3486 38.8112 38.3486 38.8397 38.3486 38.8397C38.4962 38.8397 38.6152 38.8397 38.7628 38.7826C38.8817 38.7541 39.0006 38.6644 39.1482 38.5788C39.1769 38.5503 39.2056 38.4891 39.2384 38.4891C39.2631 38.4647 39.3246 38.4076 39.3246 38.3791ZM31.9108 39.1984L32.206 38.7867H32.2963C32.3865 38.8438 32.4439 38.9049 32.4726 38.9334C32.5628 39.0231 32.6489 39.0517 32.7104 39.0802H32.7391C32.7965 38.962 32.9154 38.8764 33.0056 38.7867H33.0343C33.1246 38.8152 33.182 38.8764 33.2394 38.9334C33.2681 38.962 33.3583 39.0231 33.4772 39.0802C33.4772 39.1087 33.4772 39.1373 33.4772 39.1373C33.4485 39.1658 33.4198 39.1943 33.3296 39.2555C33.3009 39.3452 33.2722 39.4022 33.2394 39.4308C33.182 39.4878 33.1492 39.5204 33.1205 39.5775C33.063 39.5775 33.0302 39.5204 32.9728 39.5204C32.9728 39.5204 32.9441 39.4919 32.8826 39.4634C32.8539 39.4348 32.7924 39.4063 32.735 39.3737C32.7063 39.3452 32.6776 39.2555 32.6448 39.2269C32.6161 39.3166 32.5874 39.3452 32.4972 39.4022C32.4398 39.4593 32.3783 39.5204 32.3783 39.5775H32.3537C32.325 39.5775 32.2963 39.5775 32.2347 39.5204C32.206 39.4919 32.1773 39.4919 32.1445 39.4919C32.0871 39.4348 32.0543 39.4022 32.0256 39.3737C31.9354 39.3452 31.9067 39.2555 31.878 39.2269L31.9108 39.1984ZM36.0441 38.3179C35.9867 38.3465 35.8965 38.4647 35.8678 38.4932C35.8678 38.5503 35.8104 38.6114 35.8104 38.7296C35.753 38.7582 35.7202 38.8193 35.6628 38.8478C35.6054 38.8764 35.5726 38.9049 35.5439 38.9661C35.3388 39.2025 35.2199 39.3778 35.1584 39.4348C34.9821 39.6101 34.8345 39.6998 34.6582 39.7283C34.6582 39.7283 34.6295 39.7283 34.6007 39.7283C34.5433 39.7283 34.4818 39.7283 34.4818 39.7283C34.4818 39.7283 34.4818 39.6998 34.5392 39.6387C34.5679 39.6101 34.5679 39.5204 34.5392 39.4919C34.5392 39.4919 34.4818 39.4919 34.449 39.5204C34.4203 39.6101 34.3588 39.6672 34.3301 39.7243C34.2727 39.7813 34.2112 39.8139 34.1538 39.871C33.916 39.9892 33.6822 40.0748 33.3255 40.136C33.1205 40.193 32.7637 40.193 32.4398 40.193C32.1445 40.193 31.8493 40.193 31.6443 40.1645C31.4392 40.1645 31.2301 40.0748 31.0538 40.0178C30.9964 40.0178 30.9636 39.9607 30.9636 39.9281C30.9349 39.8995 30.9349 39.8099 30.9349 39.7813C30.9349 39.7528 30.9349 39.7243 30.9349 39.6917C30.9349 39.6631 30.9349 39.6346 30.9349 39.602C30.9349 39.5734 30.9062 39.5123 30.8775 39.5123C30.8775 39.5123 30.8201 39.5123 30.7873 39.5694C30.7873 39.6876 30.7586 39.8058 30.7298 39.8914C30.7298 39.9485 30.7298 40.0381 30.7298 40.1564C30.7298 40.2134 30.7298 40.2746 30.7298 40.3316C30.7298 40.3602 30.7586 40.4499 30.7586 40.4784C30.7873 40.5681 30.8775 40.6251 30.9964 40.6822C30.9964 40.7107 31.0866 40.7107 31.2629 40.7719C31.4679 40.7719 31.6771 40.8004 31.8821 40.8004C32.1199 40.8004 32.325 40.8004 32.5628 40.7719C32.7391 40.7434 32.9769 40.7148 33.182 40.6822C33.4772 40.5925 33.715 40.5355 33.8914 40.4458C34.1292 40.299 34.3055 40.1237 34.4244 39.8873C34.4531 39.9159 34.4818 39.9444 34.5433 39.9444C34.6007 39.9444 34.6336 39.9444 34.6623 39.9729C34.691 39.9729 34.7197 39.9729 34.7197 39.9729C34.7771 39.9729 34.896 39.9444 34.9247 39.9159C34.9821 39.8873 35.0436 39.8588 35.1297 39.7691C35.1871 39.6794 35.2773 39.5938 35.3347 39.4756C35.4537 39.3574 35.5398 39.2392 35.6587 39.2106C35.6874 39.1821 35.7161 39.1821 35.7489 39.1821C35.8063 39.1821 35.8391 39.2106 35.9539 39.2392C36.0113 39.2392 36.0441 39.2962 36.0728 39.2962C36.1302 39.2962 36.2205 39.2392 36.2779 39.2066C36.3066 39.1495 36.3353 39.0884 36.3968 39.0598C36.3968 39.0313 36.4255 39.0027 36.4542 38.9416C36.4542 38.8845 36.4542 38.8519 36.4542 38.8234C36.3968 38.7337 36.3353 38.6481 36.2492 38.5584C36.1589 38.4687 36.1015 38.3546 36.0728 38.2935H36.0441V38.3179ZM27.0722 41.3711L27.4863 41.0206H27.515C27.5437 41.0776 27.6052 41.1388 27.6627 41.1958C27.7201 41.2855 27.8103 41.314 27.8677 41.3711C27.8677 41.3711 27.8677 41.3997 27.839 41.4282L27.515 41.7217C27.515 41.7502 27.4863 41.7502 27.4863 41.7502C27.4289 41.7502 27.3961 41.7502 27.3961 41.7217C27.3674 41.7217 27.3387 41.7217 27.3387 41.6932C27.2813 41.6361 27.2485 41.6035 27.2198 41.5749C27.1296 41.4853 27.1009 41.4567 27.0722 41.3997V41.3711ZM29.6965 40.1971H29.7539C29.7826 40.2257 29.8441 40.2868 29.9015 40.3439C29.9589 40.4336 30.0492 40.4621 30.1066 40.4906C30.0779 40.5477 30.0492 40.5803 30.0164 40.6088C29.9589 40.6374 29.9261 40.7271 29.8974 40.7556C29.8687 40.7556 29.8687 40.7841 29.84 40.8127C29.8113 40.8412 29.7498 40.8697 29.6924 40.8412C29.635 40.8412 29.5735 40.7841 29.5448 40.7515C29.4874 40.6944 29.3972 40.6048 29.3685 40.5477L29.6965 40.1971ZM29.6965 39.818C29.6063 39.9362 29.5202 40.0218 29.4013 40.1401C29.3439 40.1401 29.2824 40.083 29.225 40.0218C29.1347 39.9933 29.106 39.9648 29.0773 39.9036C29.0486 39.8751 29.0199 39.8139 29.0199 39.7854C29.0773 39.7283 29.1388 39.6672 29.1962 39.6101C29.2537 39.4919 29.3152 39.4348 29.3439 39.4063H29.3726C29.5202 39.5245 29.6104 39.6101 29.6104 39.6101C29.6391 39.6387 29.7006 39.6672 29.7867 39.7283L30.0533 39.4348H30.1107C30.1681 39.4919 30.2296 39.5816 30.2583 39.6101C30.3485 39.6672 30.4059 39.6998 30.4633 39.7283C30.4633 39.7569 30.4633 39.7569 30.4633 39.7854C30.4633 39.7854 30.4633 39.8139 30.4346 39.8139L30.1394 40.136L30.1107 40.1645C30.082 40.1645 30.0533 40.136 30.0205 40.136C29.963 40.136 29.963 40.0789 29.9302 40.0789C29.8728 40.0218 29.84 39.9892 29.8113 39.9607C29.7867 39.9322 29.758 39.9036 29.6965 39.818ZM26.982 39.818C26.982 40.1686 27.0107 40.348 27.0394 40.3765C27.0681 40.5803 27.2157 40.7271 27.3346 40.7882C27.392 40.7882 27.4248 40.8167 27.5109 40.8167C27.6298 40.8167 27.7775 40.7882 27.8636 40.6985C27.9825 40.6088 28.1014 40.5232 28.1875 40.3765L28.7493 39.5857V39.4675C28.7493 39.4389 28.7206 39.4389 28.7206 39.4104C28.3966 39.4104 28.1014 39.3818 27.8062 39.3533C27.8062 39.3533 27.8062 39.3248 27.8636 39.2636C27.9538 39.1454 28.1014 39.0883 28.2162 39.0272C28.3638 38.9375 28.5115 38.909 28.6591 38.909C28.6878 38.909 28.7493 38.9375 28.8354 39.0272C28.9256 39.0557 28.983 39.0843 29.0117 39.0843C29.0117 39.0843 29.0404 39.0843 29.0691 39.0843C29.188 39.0557 29.2742 38.9661 29.3644 38.8478C29.4546 38.7582 29.5407 38.644 29.6022 38.5543C29.6309 38.4973 29.6309 38.4647 29.6022 38.4647C29.5735 38.4647 29.5735 38.4647 29.5448 38.4647C29.5161 38.4932 29.4546 38.5543 29.3685 38.6114C29.2783 38.7296 29.1922 38.7867 29.0732 38.7867C29.0445 38.7867 29.0445 38.7867 29.0158 38.7867C28.9584 38.7296 28.8969 38.6685 28.8108 38.6114C28.7206 38.6114 28.6345 38.6399 28.5156 38.6685C28.4582 38.6685 28.2777 38.7867 28.1301 38.8438C27.9538 38.962 27.8349 39.0802 27.716 39.1373C27.6257 39.2555 27.5683 39.4022 27.5109 39.5775C27.5109 39.5775 27.5396 39.6061 27.5683 39.6061C27.5683 39.6061 27.597 39.6061 27.6257 39.6061C27.8923 39.6346 28.1588 39.6346 28.4213 39.6631C28.3925 39.7202 28.3638 39.7813 28.2736 39.8099C28.2736 39.8669 28.2162 39.8995 28.126 39.9852C28.0686 40.0137 27.9497 40.0748 27.8882 40.1319C27.798 40.1319 27.7119 40.1604 27.6216 40.1604C27.5314 40.1604 27.4166 40.1319 27.3551 40.0422C27.2649 39.9852 27.2362 39.8955 27.2075 39.7773C27.2075 39.659 27.2075 39.5123 27.1501 39.3655V38.5421C27.1501 38.2486 27.2075 37.9551 27.2403 37.6616C27.2403 37.6331 27.2116 37.6046 27.2116 37.6046C27.1542 37.6046 27.1542 37.6331 27.1214 37.6331C27.1214 37.6331 27.0927 37.7513 27.0312 37.9551C27.0025 38.0122 26.9738 38.0733 26.9738 38.1589C26.9738 38.216 26.9738 38.3057 26.9738 38.3628C26.9738 38.4524 26.9738 38.5095 26.9738 38.5666V39.0068V39.818H26.982ZM28.1629 37.7309L28.5156 37.3477H28.5443C28.6632 37.4374 28.7493 37.523 28.8108 37.6127C28.8108 37.6412 28.8395 37.6412 28.901 37.6698C28.9297 37.6983 28.9297 37.7268 28.9297 37.7268C28.8108 37.8451 28.6919 37.9633 28.5443 38.0774C28.5443 38.0774 28.5156 38.0774 28.4869 38.0489C28.4582 38.0489 28.4295 38.0203 28.3966 38.0203C28.3392 37.9633 28.2777 37.9307 28.249 37.9021C28.2203 37.8206 28.1629 37.7921 28.1629 37.7309ZM23.6769 40.2583L23.7343 40.2297C23.8533 40.1401 24.0296 40.0259 24.1772 39.9362H24.2059C24.2633 40.0545 24.4437 40.2297 24.5011 40.3765V40.4336C24.4437 40.4336 24.3822 40.5232 24.2961 40.5518C24.2059 40.5803 24.1485 40.6414 24.0583 40.6985C24.0009 40.6985 23.9394 40.6985 23.9394 40.6414C23.9107 40.6129 23.8492 40.5518 23.8492 40.5518C23.8205 40.4947 23.7589 40.3765 23.7302 40.348C23.7056 40.3153 23.6769 40.2868 23.6769 40.2583ZM26.7154 39.231C26.7441 39.2025 26.7441 39.2025 26.7154 39.2025C26.7154 39.2025 26.6867 39.2025 26.658 39.231C26.5678 39.231 26.453 39.3778 26.3915 39.4063C26.2726 39.4348 26.1865 39.4634 26.0963 39.4634C25.8584 39.4634 25.596 39.4348 25.3582 39.4063C25.1203 39.3778 24.8251 39.3166 24.5627 39.2025C24.2387 39.1128 23.9722 39.0272 23.7343 38.9375C23.6154 38.8478 23.3817 38.7337 23.2628 38.6155C23.2628 38.587 23.2054 38.5584 23.1726 38.4973C23.1726 38.4687 23.2013 38.3791 23.2013 38.322L23.2587 38.2038C23.2587 38.2038 23.2587 38.1752 23.2874 38.1141C23.2874 38.0856 23.2587 38.0856 23.2587 38.0856H23.2013C23.2013 38.0856 23.2013 38.0856 23.1726 38.0856C23.1152 38.2323 23.0824 38.322 22.9963 38.4076C22.9963 38.4973 22.9675 38.5829 22.906 38.6726C22.906 38.7296 22.8773 38.7622 22.8773 38.8193C22.8773 38.8478 22.8486 38.909 22.8486 38.9661C22.8773 39.0231 22.8773 39.0843 22.906 39.1413C22.9963 39.231 23.0537 39.2596 23.1439 39.3452C23.3489 39.4348 23.6441 39.5816 23.9107 39.6387C24.1772 39.7283 24.4724 39.7854 24.7677 39.8139C25.0342 39.9036 25.3295 39.9036 25.5632 39.9322C25.801 39.9322 26.006 39.8751 26.2439 39.7283C26.4489 39.6101 26.5965 39.4634 26.7154 39.231Z" fill="white"/>
</svg>
