<svg width="22" height="22" viewBox="0 0 22 22" fill="none" xmlns="http://www.w3.org/2000/svg">
<path d="M12.8334 8.02083C12.4576 8.02083 12.1459 7.70916 12.1459 7.33333V1.14583H6.41675C4.51925 1.14583 2.97925 2.68583 2.97925 4.58333V17.4167C2.97925 19.3142 4.51925 20.8542 6.41675 20.8542H15.5834C17.4809 20.8542 19.0209 19.3142 19.0209 17.4167V8.02083H12.8334ZM7.33342 6.64583H9.16675C9.54258 6.64583 9.85425 6.9575 9.85425 7.33333C9.85425 7.70916 9.54258 8.02083 9.16675 8.02083H7.33342C6.95758 8.02083 6.64592 7.70916 6.64592 7.33333C6.64592 6.9575 6.95758 6.64583 7.33342 6.64583ZM14.6667 15.3542H7.33342C6.95758 15.3542 6.64592 15.0425 6.64592 14.6667C6.64592 14.2908 6.95758 13.9792 7.33342 13.9792H14.6667C15.0426 13.9792 15.3542 14.2908 15.3542 14.6667C15.3542 15.0425 15.0426 15.3542 14.6667 15.3542ZM14.6667 11.6875H7.33342C6.95758 11.6875 6.64592 11.3758 6.64592 11C6.64592 10.6242 6.95758 10.3125 7.33342 10.3125H14.6667C15.0426 10.3125 15.3542 10.6242 15.3542 11C15.3542 11.3758 15.0426 11.6875 14.6667 11.6875ZM18.6176 6.64583H13.5209V1.54916L18.6176 6.64583Z" fill="white" fill-opacity="0.65"/>
</svg>
