<svg width="22" height="22" viewBox="0 0 22 22" fill="none" xmlns="http://www.w3.org/2000/svg">
<path d="M12.8749 12.2916C12.4371 12.2916 12.0833 12.6463 12.0833 13.0832V16.2499C12.0833 16.6861 11.7285 17.0415 11.2915 17.0415H8.91654V5.16662C8.91654 4.49053 8.48589 3.88651 7.83834 3.66167L7.60396 3.58326H11.2915C11.7285 3.58326 12.0833 3.93869 12.0833 4.37501V6.74999C12.0833 7.18687 12.4371 7.5416 12.8749 7.5416C13.3127 7.5416 13.6665 7.18687 13.6665 6.74999V4.37501C13.6665 3.06562 12.6009 2.00004 11.2915 2.00004H2.78123C2.7511 2.00004 2.72587 2.01351 2.69659 2.01744C2.65844 2.01425 2.62207 2 2.58337 2C1.71016 2.00004 1 2.71008 1 3.58329V17.8332C1 18.5092 1.43065 19.1133 2.0782 19.3381L6.84244 20.9262C7.00394 20.9761 7.16455 20.9999 7.33328 20.9999C8.2065 20.9999 8.9165 20.2897 8.9165 19.4165V18.6249H11.2915C12.6009 18.6249 13.6665 17.5593 13.6665 16.2499V13.0832C13.6665 12.6463 13.3126 12.2916 12.8748 12.2916H12.8749Z" fill="white" fill-opacity="0.65"/>
<path d="M19.7679 9.35713L16.6011 6.19054C16.4905 6.07975 16.3494 6.00428 16.1958 5.97368C16.0422 5.94307 15.883 5.95871 15.7384 6.01862C15.4431 6.14141 15.2498 6.4303 15.2498 6.75022V9.1252H12.0833C11.6462 9.1252 11.2915 9.47977 11.2915 9.91681C11.2915 10.3538 11.6462 10.7084 12.0833 10.7084H15.2498V13.0834C15.2498 13.4033 15.4431 13.6922 15.7384 13.815C15.883 13.8749 16.0422 13.8905 16.1958 13.86C16.3494 13.8294 16.4904 13.7539 16.6011 13.6432L19.7679 10.4765C20.0774 10.167 20.0774 9.66662 19.7679 9.35713Z" fill="white" fill-opacity="0.65"/>
</svg>
