<svg width="24" height="24" viewBox="0 0 24 24" fill="none" xmlns="http://www.w3.org/2000/svg">
<g clip-path="url(#clip0_119_492)">
<path d="M23.7495 13.942C23.2932 12.069 22.1836 10.4152 20.6251 9.28514C19.1416 8.2095 17.3352 7.66486 15.5176 7.74019C14.6798 5.9422 13.2211 4.52152 11.3855 3.72398C11.2994 3.6882 11.2026 3.68773 11.116 3.72266C11.0295 3.7576 10.9601 3.82515 10.9229 3.91074C10.8858 3.99634 10.8837 4.09312 10.9172 4.18022C10.9507 4.26732 11.0171 4.33775 11.1021 4.37634C12.8481 5.13492 14.2206 6.51052 14.967 8.24967C15.1306 8.63101 15.2622 9.02527 15.3605 9.42839C15.3875 9.53956 15.4119 9.65134 15.4338 9.76364L15.4338 9.76388C15.7899 11.5812 15.4549 13.4553 14.4905 15.0409C13.5787 16.5399 12.1794 17.658 10.5275 18.2148C10.4398 18.0153 10.3634 17.811 10.2988 17.6028C10.2954 17.5919 10.292 17.5809 10.2886 17.5699C10.2688 17.5053 10.2501 17.4403 10.2326 17.3751L10.2313 17.3702C13.3383 16.3274 15.2172 13.0923 14.5385 9.85078V9.85064C14.5239 9.78018 14.5081 9.70997 14.4912 9.64003C14.3736 9.15695 14.2016 8.68879 13.9783 8.24456L13.9768 8.24184C13.9753 8.23891 13.9738 8.23601 13.9722 8.23312C13.3194 6.94303 12.2359 5.8927 10.9196 5.27494C10.2885 4.97878 9.61503 4.78823 8.92855 4.70606L11.4548 2.35791C11.5168 2.30027 11.5562 2.22243 11.5659 2.13835C11.5757 2.05427 11.5551 1.96947 11.5079 1.89919L11.5062 1.8967L11.5062 1.89656L10.3383 0.157359C10.3058 0.108931 10.2618 0.0692472 10.2104 0.0418056C10.1589 0.014364 10.1014 7.0674e-06 10.0431 0L6.25794 0C6.19959 7.57223e-06 6.14214 0.0143644 6.09065 0.0418056C6.03916 0.0692468 5.99521 0.10893 5.96267 0.157359L4.793 1.89928C4.74582 1.96956 4.72526 2.05436 4.735 2.13844C4.74474 2.22252 4.78416 2.30037 4.84616 2.358L7.37216 4.70597C7.11417 4.73664 6.85825 4.78277 6.6058 4.84411C3.10953 5.69588 0.958062 9.2333 1.80973 12.7296C2.16087 14.171 3.00139 15.4609 4.17645 16.3618C5.25603 17.1894 6.57772 17.6623 7.92753 17.7086C7.934 17.7365 7.94056 17.7641 7.94722 17.7916C7.96306 17.8567 7.97984 17.9213 7.99719 17.9856C8.00122 18.0005 8.00553 18.0154 8.00961 18.0303C8.02376 18.0818 8.03834 18.1329 8.05344 18.1838C8.09564 18.326 8.14164 18.467 8.19139 18.6067C6.62722 18.6146 5.0863 18.1246 3.80534 17.2006C2.3757 16.1693 1.35819 14.6566 0.940343 12.9413C0.523249 11.2292 0.729452 9.42089 1.52108 7.8495C2.30394 6.29545 3.6095 5.06166 5.19734 4.37541C5.28303 4.3374 5.35025 4.2671 5.38438 4.1798C5.41851 4.0925 5.4168 3.99525 5.37961 3.90921C5.34242 3.82316 5.27276 3.75528 5.18578 3.72032C5.09881 3.68536 5.00155 3.68616 4.91516 3.72253C3.17464 4.47483 1.74369 5.82684 0.885921 7.52953C0.0183587 9.25177 -0.207673 11.2335 0.249359 13.1097C0.707281 14.9894 1.82244 16.647 3.38928 17.7774C4.77992 18.7806 6.4505 19.3181 8.14869 19.3181C8.25922 19.3181 8.36989 19.3151 8.48061 19.3106C9.81556 22.169 12.7117 24 15.8486 24C16.4839 24 17.1292 23.9249 17.7732 23.768C22.1299 22.7066 24.8109 18.2987 23.7495 13.942ZM15.0981 15.4105C16.0781 13.7993 16.4645 11.9161 16.2045 10.0626C17.3617 10.1343 18.4895 10.5567 19.4134 11.2726C20.4624 12.0855 21.1832 13.1982 21.4981 14.4905C22.257 17.6058 20.34 20.7576 17.2247 21.5165C15.7157 21.8842 14.1537 21.6421 12.8267 20.835C12.0053 20.3354 11.335 19.6562 10.856 18.8534C12.6225 18.2321 14.1178 17.0225 15.0981 15.4105ZM10.0885 16.667C9.90683 15.3728 10.1645 14.0623 10.8343 12.922C11.5352 11.7289 12.6176 10.8392 13.9097 10.3845C14.2906 13.1097 12.6837 15.7517 10.0885 16.667ZM6.44745 0.711234H9.85348L10.5438 1.7393H5.75717L6.44745 0.711234ZM5.99033 2.45053H10.3106L8.15047 4.45842L5.99033 2.45053ZM7.79375 16.9895C6.64705 16.919 5.52922 16.5027 4.60925 15.7973C3.5473 14.9832 2.81825 13.8641 2.50086 12.5612C1.74195 9.44597 3.65895 6.29409 6.77422 5.53514C8.07716 5.2177 9.40616 5.35045 10.6175 5.91891C11.667 6.41142 12.5496 7.21261 13.1405 8.19853C11.3157 8.84025 9.78926 10.1029 8.81112 11.7914C7.8927 13.3768 7.54142 15.1957 7.79375 16.9895ZM17.6049 23.0769C17.03 23.2174 16.4404 23.2885 15.8486 23.2887C12.8957 23.2884 10.1761 21.5099 9.01377 18.7585C9.00106 18.7284 8.98836 18.6983 8.97603 18.668C8.97106 18.6558 8.96628 18.6435 8.96136 18.6312C8.94622 18.5934 8.93122 18.5556 8.91673 18.5175L8.91036 18.5004C8.89371 18.4566 8.8775 18.4126 8.8617 18.3684L8.8602 18.3642C8.84317 18.3165 8.82664 18.2686 8.81061 18.2206L8.81033 18.2198C8.79407 18.1711 8.77832 18.1223 8.76308 18.0733L8.75994 18.0628C8.7458 18.0172 8.7321 17.9715 8.71883 17.9256C8.71451 17.9106 8.71048 17.8955 8.70622 17.8804C8.69642 17.8457 8.68662 17.811 8.67734 17.7762C8.6638 17.7253 8.6508 17.6744 8.63834 17.6233C8.62569 17.5714 8.61383 17.5194 8.60234 17.4674C8.59789 17.4471 8.59353 17.4264 8.58917 17.4057C8.58416 17.382 8.57933 17.3584 8.57455 17.3347C8.57141 17.3191 8.56826 17.3038 8.56512 17.2879C8.5647 17.2858 8.56405 17.2837 8.56362 17.2816C8.22003 15.5198 8.52186 13.7097 9.42659 12.1479C10.336 10.578 11.7645 9.41166 13.4711 8.83692C13.5912 9.11037 13.6903 9.3926 13.7674 9.68114C12.2754 10.181 11.0247 11.1937 10.2212 12.5617C9.39401 13.9696 9.12711 15.6088 9.46048 17.2005L9.46053 17.2008L9.461 17.2031C9.46691 17.2312 9.47291 17.2594 9.47919 17.2875C9.50097 17.3868 9.52537 17.4856 9.55236 17.5836C9.55616 17.5976 9.56028 17.6115 9.56417 17.6255C9.57655 17.6698 9.58925 17.714 9.60247 17.7579C9.60645 17.7712 9.61062 17.7844 9.61475 17.7976C9.63191 17.8532 9.64977 17.9085 9.66833 17.9637C9.68619 18.0167 9.70475 18.0694 9.72392 18.1217L9.72598 18.1274C10.2324 19.5072 11.1829 20.6675 12.4572 21.4426C13.4925 22.0723 14.655 22.3955 15.8366 22.3955C16.3548 22.3955 16.8769 22.3333 17.3932 22.2075C20.8895 21.3557 23.041 17.8183 22.1892 14.322C21.8359 12.8717 21.0267 11.6227 19.8491 10.7103C18.7657 9.8708 17.4321 9.38986 16.0715 9.34322C16.0006 9.03886 15.9124 8.7388 15.8073 8.44453C17.3773 8.43516 18.9244 8.93048 20.2077 9.86091C21.6297 10.8919 22.6421 12.4011 23.0585 14.1103C24.027 18.086 21.5805 22.1084 17.6049 23.0769Z" fill="#FF7F37"/>
</g>
<defs>
<clipPath id="clip0_119_492">
<rect width="24" height="24" fill="white"/>
</clipPath>
</defs>
</svg>
