<svg width="24" height="24" viewBox="0 0 24 24" fill="none" xmlns="http://www.w3.org/2000/svg">
<path d="M10.965 19.5H3.5C3.10218 19.5 2.72064 19.342 2.43934 19.0607C2.15804 18.7794 2 18.3978 2 18V7.5H18.5V10.66C18.5 10.7926 18.5527 10.9198 18.6464 11.0136C18.7402 11.1073 18.8674 11.16 19 11.16C19.1326 11.16 19.2598 11.1073 19.3536 11.0136C19.4473 10.9198 19.5 10.7926 19.5 10.66V5C19.4992 4.3372 19.2356 3.70178 18.7669 3.23311C18.2982 2.76444 17.6628 2.50079 17 2.5H16C16 2.10218 15.842 1.72064 15.5607 1.43934C15.2794 1.15804 14.8978 1 14.5 1C14.1022 1 13.7206 1.15804 13.4393 1.43934C13.158 1.72064 13 2.10218 13 2.5H7.5C7.5 2.10218 7.34197 1.72064 7.06066 1.43934C6.77936 1.15804 6.39783 1 6 1C5.60218 1 5.22064 1.15804 4.93934 1.43934C4.65804 1.72064 4.5 2.10218 4.5 2.5H3.5C2.8372 2.50079 2.20178 2.76444 1.73311 3.23311C1.26444 3.70178 1.00079 4.3372 1 5V18C1.00079 18.6628 1.26444 19.2982 1.73311 19.7669C2.20178 20.2356 2.8372 20.4992 3.5 20.5H10.965C11.0976 20.5 11.2248 20.4473 11.3186 20.3536C11.4123 20.2598 11.465 20.1326 11.465 20C11.465 19.8674 11.4123 19.7402 11.3186 19.6464C11.2248 19.5527 11.0976 19.5 10.965 19.5ZM14 2.5C14 2.36739 14.0527 2.24021 14.1464 2.14645C14.2402 2.05268 14.3674 2 14.5 2C14.6326 2 14.7598 2.05268 14.8536 2.14645C14.9473 2.24021 15 2.36739 15 2.5V3.5C15 3.63261 14.9473 3.75979 14.8536 3.85355C14.7598 3.94732 14.6326 4 14.5 4C14.3674 4 14.2402 3.94732 14.1464 3.85355C14.0527 3.75979 14 3.63261 14 3.5V2.5ZM5.5 2.5C5.5 2.36739 5.55268 2.24021 5.64645 2.14645C5.74022 2.05268 5.86739 2 6 2C6.13261 2 6.25979 2.05268 6.35355 2.14645C6.44732 2.24021 6.5 2.36739 6.5 2.5V3.5C6.5 3.63261 6.44732 3.75979 6.35355 3.85355C6.25979 3.94732 6.13261 4 6 4C5.86739 4 5.74022 3.94732 5.64645 3.85355C5.55268 3.75979 5.5 3.63261 5.5 3.5V2.5ZM2 5C2 4.60218 2.15804 4.22064 2.43934 3.93934C2.72064 3.65804 3.10218 3.5 3.5 3.5H4.5C4.5 3.89782 4.65804 4.27936 4.93934 4.56066C5.22064 4.84196 5.60218 5 6 5C6.39783 5 6.77936 4.84196 7.06066 4.56066C7.34197 4.27936 7.5 3.89782 7.5 3.5H13C13 3.89782 13.158 4.27936 13.4393 4.56066C13.7206 4.84196 14.1022 5 14.5 5C14.8978 5 15.2794 4.84196 15.5607 4.56066C15.842 4.27936 16 3.89782 16 3.5H17C17.3978 3.5 17.7794 3.65804 18.0607 3.93934C18.342 4.22064 18.5 4.60218 18.5 5V6.5H2V5Z" fill="#B956E3"/>
<path d="M7 10C7 9.73478 6.89464 9.48043 6.70711 9.29289C6.51957 9.10536 6.26522 9 6 9H4.5C4.23478 9 3.98043 9.10536 3.79289 9.29289C3.60536 9.48043 3.5 9.73478 3.5 10V11.5C3.5 11.7652 3.60536 12.0196 3.79289 12.2071C3.98043 12.3946 4.23478 12.5 4.5 12.5H6C6.26522 12.5 6.51957 12.3946 6.70711 12.2071C6.89464 12.0196 7 11.7652 7 11.5V10ZM4.5 11.5V10H6V11.5H4.5ZM12 10C12 9.73478 11.8946 9.48043 11.7071 9.29289C11.5196 9.10536 11.2652 9 11 9H9.5C9.23478 9 8.98043 9.10536 8.79289 9.29289C8.60536 9.48043 8.5 9.73478 8.5 10V11.5C8.5 11.7652 8.60536 12.0196 8.79289 12.2071C8.98043 12.3946 9.23478 12.5 9.5 12.5H11C11.2652 12.5 11.5196 12.3946 11.7071 12.2071C11.8946 12.0196 12 11.7652 12 11.5V10ZM9.5 11.5V10H11V11.5H9.5ZM16.5 11.07C16.6326 11.07 16.7598 11.0173 16.8536 10.9236C16.9473 10.8298 17 10.7026 17 10.57V10C17 9.73478 16.8946 9.48043 16.7071 9.29289C16.5196 9.10536 16.2652 9 16 9H14.5C14.2348 9 13.9804 9.10536 13.7929 9.29289C13.6054 9.48043 13.5 9.73478 13.5 10V11.44C13.5 11.5726 13.5527 11.6998 13.6464 11.7936C13.7402 11.8873 13.8674 11.94 14 11.94C14.1326 11.94 14.2598 11.8873 14.3536 11.7936C14.4473 11.6998 14.5 11.5726 14.5 11.44V10H16V10.57C16 10.7026 16.0527 10.8298 16.1464 10.9236C16.2402 11.0173 16.3674 11.07 16.5 11.07ZM6 14H4.5C4.23478 14 3.98043 14.1054 3.79289 14.2929C3.60536 14.4804 3.5 14.7348 3.5 15V16.5C3.5 16.7652 3.60536 17.0196 3.79289 17.2071C3.98043 17.3946 4.23478 17.5 4.5 17.5H6C6.26522 17.5 6.51957 17.3946 6.70711 17.2071C6.89464 17.0196 7 16.7652 7 16.5V15C7 14.7348 6.89464 14.4804 6.70711 14.2929C6.51957 14.1054 6.26522 14 6 14ZM4.5 16.5V15H6V16.5H4.5ZM11.345 14.0655C11.2352 14.0219 11.1181 13.9997 11 14H9.5C9.23478 14 8.98043 14.1054 8.79289 14.2929C8.60536 14.4804 8.5 14.7348 8.5 15V16.5C8.5 16.7652 8.60536 17.0196 8.79289 17.2071C8.98043 17.3946 9.23478 17.5 9.5 17.5H10.52C10.6526 17.5 10.7798 17.4473 10.8736 17.3536C10.9673 17.2598 11.02 17.1326 11.02 17C11.02 16.8674 10.9673 16.7402 10.8736 16.6464C10.7798 16.5527 10.6526 16.5 10.52 16.5H9.5V15L10.975 14.9945C11.098 15.0424 11.2348 15.0397 11.3558 14.9871C11.4768 14.9345 11.5721 14.8362 11.6209 14.7136C11.6698 14.591 11.6682 14.4541 11.6165 14.3327C11.5648 14.2113 11.4672 14.1153 11.345 14.0655ZM17.5 12C16.4122 12 15.3488 12.3226 14.4444 12.9269C13.5399 13.5313 12.8349 14.3902 12.4187 15.3952C12.0024 16.4002 11.8935 17.5061 12.1057 18.573C12.3179 19.6399 12.8417 20.6199 13.6109 21.3891C14.3801 22.1583 15.3601 22.6821 16.427 22.8943C17.4939 23.1065 18.5998 22.9976 19.6048 22.5813C20.6098 22.1651 21.4687 21.4601 22.0731 20.5556C22.6774 19.6512 23 18.5878 23 17.5C22.9983 16.0418 22.4183 14.6439 21.3872 13.6128C20.3561 12.5817 18.9582 12.0017 17.5 12ZM17.5 22C16.61 22 15.74 21.7361 14.9999 21.2416C14.2599 20.7471 13.6831 20.0443 13.3425 19.2221C13.0019 18.3998 12.9128 17.495 13.0865 16.6221C13.2601 15.7492 13.6887 14.9474 14.318 14.318C14.9474 13.6887 15.7492 13.2601 16.6221 13.0865C17.495 12.9128 18.3998 13.0019 19.2221 13.3425C20.0443 13.6831 20.7471 14.2599 21.2416 14.9999C21.7361 15.74 22 16.61 22 17.5C21.9987 18.6931 21.5241 19.8369 20.6805 20.6805C19.8369 21.5241 18.6931 21.9987 17.5 22Z" fill="#B956E3"/>
<path d="M18 17.293V15C18 14.8674 17.9473 14.7402 17.8536 14.6464C17.7598 14.5527 17.6326 14.5 17.5 14.5C17.3674 14.5 17.2402 14.5527 17.1464 14.6464C17.0527 14.7402 17 14.8674 17 15V17.5C17 17.6326 17.0527 17.7598 17.1465 17.8535L18.1465 18.8535C18.2408 18.9446 18.3671 18.995 18.4982 18.9938C18.6293 18.9927 18.7547 18.9401 18.8474 18.8474C18.9401 18.7547 18.9927 18.6293 18.9938 18.4982C18.995 18.3671 18.9446 18.2408 18.8535 18.1465L18 17.293Z" fill="#B956E3"/>
</svg>
