<svg width="24" height="24" viewBox="0 0 24 24" fill="none" xmlns="http://www.w3.org/2000/svg">
<path d="M11.8375 11.1028C9.72352 11.1028 8.00977 9.38904 8.00977 7.27501C8.00977 5.16099 9.72352 3.44724 11.8375 3.44724C13.9516 3.44724 15.6653 5.16099 15.6653 7.27501C15.6653 9.38904 13.9516 11.1028 11.8375 11.1028Z" fill="white" fill-opacity="0.65"/>
<path d="M3.22572 19.9059C3.59664 15.3387 7.30351 13.0167 11.8217 13.0167C16.4034 13.0167 20.1677 15.2111 20.4481 19.9067C20.4593 20.0937 20.4481 20.6722 19.7292 20.6722C16.1832 20.6722 10.9139 20.6722 3.92128 20.6722C3.68128 20.6722 3.20552 20.1547 3.22572 19.9059Z" fill="white" fill-opacity="0.65"/>
</svg>
