<svg width="24" height="24" viewBox="0 0 24 24" fill="none" xmlns="http://www.w3.org/2000/svg">
<g clip-path="url(#clip0_119_520)">
<path d="M11.9997 13.0909C11.9334 13.0909 11.8676 13.0789 11.8055 13.0555L0.351388 8.692C0.247901 8.65275 0.158805 8.58294 0.0959335 8.49185C0.0330617 8.40076 -0.000610352 8.2927 -0.000610352 8.18202C-0.000610352 8.07134 0.0330617 7.96328 0.0959335 7.87219C0.158805 7.7811 0.247901 7.71129 0.351388 7.67204L11.8055 3.30855C11.9306 3.26116 12.0688 3.26116 12.1939 3.30855L23.648 7.67204C23.7515 7.71129 23.8406 7.7811 23.9035 7.87219C23.9664 7.96328 24 8.07134 24 8.18202C24 8.2927 23.9664 8.40076 23.9035 8.49185C23.8406 8.58294 23.7515 8.65275 23.648 8.692L12.1939 13.0555C12.1318 13.0789 12.066 13.0909 11.9997 13.0909ZM2.07824 8.18202L11.9997 11.9619L21.9212 8.18202L11.9997 4.40215L2.07824 8.18202Z" fill="#F8BD26"/>
<path d="M11.9997 20.727C11.9334 20.7271 11.8676 20.715 11.8056 20.6916L4.71491 17.9917C4.61156 17.9523 4.52262 17.8825 4.45989 17.7914C4.39715 17.7003 4.36359 17.5923 4.36365 17.4817V9.84561C4.36365 9.70095 4.42111 9.56221 4.5234 9.45993C4.62569 9.35764 4.76442 9.30017 4.90908 9.30017C5.05374 9.30017 5.19248 9.35764 5.29476 9.45993C5.39705 9.56221 5.45452 9.70095 5.45452 9.84561V17.1054L11.9997 19.598L18.545 17.1054V9.84561C18.545 9.70095 18.6024 9.56221 18.7047 9.45993C18.807 9.35764 18.9458 9.30017 19.0904 9.30017C19.2351 9.30017 19.3738 9.35764 19.4761 9.45993C19.5784 9.56221 19.6358 9.70095 19.6358 9.84561V17.4817C19.6359 17.5923 19.6023 17.7003 19.5396 17.7914C19.4769 17.8825 19.3879 17.9523 19.2846 17.9917L12.1939 20.6916C12.1319 20.715 12.0661 20.7271 11.9997 20.727Z" fill="#F8BD26"/>
<path d="M2.72732 19.6362C2.58266 19.6362 2.44393 19.5787 2.34164 19.4764C2.23935 19.3741 2.18188 19.2354 2.18188 19.0907V9.01328C2.18188 8.87711 2.2328 8.74587 2.32465 8.64534C2.41649 8.54482 2.54262 8.48228 2.67823 8.47003L11.9506 7.63878C12.0947 7.62576 12.2381 7.67051 12.3492 7.76319C12.4602 7.85586 12.53 7.98887 12.543 8.13295C12.556 8.27703 12.5112 8.42038 12.4186 8.53146C12.3259 8.64255 12.1929 8.71227 12.0488 8.72529L3.27276 9.5129V19.0907C3.27276 19.2354 3.21529 19.3741 3.113 19.4764C3.01071 19.5787 2.87198 19.6362 2.72732 19.6362Z" fill="#F8BD26"/>
<path d="M3.81812 22.9088H1.63638C1.49172 22.9088 1.35299 22.8513 1.2507 22.749C1.14841 22.6467 1.09094 22.508 1.09094 22.3633V20.1816C1.09094 19.7476 1.26334 19.3314 1.57021 19.0246C1.87707 18.7177 2.29327 18.5453 2.72725 18.5453C3.16122 18.5453 3.57743 18.7177 3.88429 19.0246C4.19116 19.3314 4.36356 19.7476 4.36356 20.1816V22.3633C4.36356 22.508 4.30609 22.6467 4.2038 22.749C4.10151 22.8513 3.96278 22.9088 3.81812 22.9088ZM2.18181 21.8179H3.27268V20.1816C3.27268 20.0369 3.21522 19.8982 3.11293 19.7959C3.01064 19.6936 2.87191 19.6362 2.72725 19.6362C2.58259 19.6362 2.44386 19.6936 2.34157 19.7959C2.23928 19.8982 2.18181 20.0369 2.18181 20.1816V21.8179Z" fill="#F8BD26"/>
</g>
<defs>
<clipPath id="clip0_119_520">
<rect width="24" height="24" fill="white"/>
</clipPath>
</defs>
</svg>
