<svg width="17" height="15" viewBox="0 0 17 15" fill="none" xmlns="http://www.w3.org/2000/svg">
<path d="M15.8587 7.33938C16.3101 7.50059 16.6325 7.91974 16.6325 8.40337V11.95C16.6325 12.4014 16.3746 12.8205 15.9877 13.014L12.7635 14.6261C12.441 14.7873 12.0541 14.7873 11.6995 14.6261L8.37854 12.9495L5.02537 14.6261C4.70295 14.7873 4.31604 14.7873 3.96138 14.6261L0.737172 13.014C0.350267 12.8205 0.124573 12.4014 0.124573 11.95V8.40337C0.124573 7.91974 0.414751 7.50059 0.86614 7.33938L3.96138 6.14643V2.66428C3.96138 2.18065 4.2838 1.7615 4.73519 1.56805L7.9594 0.375094C8.21733 0.278368 8.50751 0.278368 8.76545 0.375094L11.9897 1.56805C12.441 1.7615 12.7635 2.18065 12.7635 2.66428V6.14643L15.8587 7.33938ZM11.6672 6.17867V3.825L8.92666 5.01795V7.21041L11.6672 6.17867ZM5.08985 2.63204L8.37854 3.98621L11.6672 2.63204L8.37854 1.3746L5.08985 2.63204ZM7.79819 12.0145V9.56409L5.05761 10.8215V13.3686L7.79819 12.0145ZM7.79819 8.40337V8.37113L4.50949 7.14593L1.2208 8.37113V8.40337L4.50949 9.7253L7.79819 8.40337ZM15.5363 12.0145V9.56409L12.7957 10.8215V13.3686L15.5363 12.0145ZM15.5363 8.40337V8.37113L12.2476 7.14593L8.9589 8.37113V8.40337L12.2476 9.7253L15.5363 8.40337Z" fill="#009F8D"/>
</svg>
