<svg width="19" height="19" viewBox="0 0 19 19" fill="none" xmlns="http://www.w3.org/2000/svg">
<path d="M10.3154 1.3395L1.615 0.0174182C1.21125 -0.0459151 0.799583 0.0649182 0.490833 0.326168C0.182083 0.595335 0 0.983252 0 1.387V18.0674C0 18.5028 0.35625 18.8591 0.791667 18.8591H3.36458V14.7028C3.36458 13.9349 3.98208 13.3174 4.75 13.3174H6.72917C7.49708 13.3174 8.11458 13.9349 8.11458 14.7028V18.8591H11.4792V2.70908C11.4792 2.02825 10.9883 1.45033 10.3154 1.3395ZM4.35417 11.5362H3.16667C3.00919 11.5362 2.85817 11.4736 2.74682 11.3623C2.63547 11.2509 2.57292 11.0999 2.57292 10.9424C2.57292 10.7849 2.63547 10.6339 2.74682 10.5226C2.85817 10.4112 3.00919 10.3487 3.16667 10.3487H4.35417C4.51164 10.3487 4.66266 10.4112 4.77401 10.5226C4.88536 10.6339 4.94792 10.7849 4.94792 10.9424C4.94792 11.0999 4.88536 11.2509 4.77401 11.3623C4.66266 11.4736 4.51164 11.5362 4.35417 11.5362ZM4.35417 9.16117H3.16667C3.00919 9.16117 2.85817 9.09861 2.74682 8.98726C2.63547 8.87591 2.57292 8.72489 2.57292 8.56742C2.57292 8.40995 2.63547 8.25892 2.74682 8.14757C2.85817 8.03622 3.00919 7.97367 3.16667 7.97367H4.35417C4.51164 7.97367 4.66266 8.03622 4.77401 8.14757C4.88536 8.25892 4.94792 8.40995 4.94792 8.56742C4.94792 8.72489 4.88536 8.87591 4.77401 8.98726C4.66266 9.09861 4.51164 9.16117 4.35417 9.16117ZM4.35417 6.78617H3.16667C3.00919 6.78617 2.85817 6.72361 2.74682 6.61226C2.63547 6.50091 2.57292 6.34989 2.57292 6.19242C2.57292 6.03495 2.63547 5.88392 2.74682 5.77257C2.85817 5.66122 3.00919 5.59867 3.16667 5.59867H4.35417C4.51164 5.59867 4.66266 5.66122 4.77401 5.77257C4.88536 5.88392 4.94792 6.03495 4.94792 6.19242C4.94792 6.34989 4.88536 6.50091 4.77401 6.61226C4.66266 6.72361 4.51164 6.78617 4.35417 6.78617ZM4.35417 4.41117H3.16667C3.00919 4.41117 2.85817 4.34861 2.74682 4.23726C2.63547 4.12591 2.57292 3.97489 2.57292 3.81742C2.57292 3.65995 2.63547 3.50892 2.74682 3.39757C2.85817 3.28622 3.00919 3.22367 3.16667 3.22367H4.35417C4.51164 3.22367 4.66266 3.28622 4.77401 3.39757C4.88536 3.50892 4.94792 3.65995 4.94792 3.81742C4.94792 3.97489 4.88536 4.12591 4.77401 4.23726C4.66266 4.34861 4.51164 4.41117 4.35417 4.41117ZM8.3125 11.5362H7.125C6.96753 11.5362 6.81651 11.4736 6.70516 11.3623C6.59381 11.2509 6.53125 11.0999 6.53125 10.9424C6.53125 10.7849 6.59381 10.6339 6.70516 10.5226C6.81651 10.4112 6.96753 10.3487 7.125 10.3487H8.3125C8.46997 10.3487 8.62099 10.4112 8.73234 10.5226C8.84369 10.6339 8.90625 10.7849 8.90625 10.9424C8.90625 11.0999 8.84369 11.2509 8.73234 11.3623C8.62099 11.4736 8.46997 11.5362 8.3125 11.5362ZM8.3125 9.16117H7.125C6.96753 9.16117 6.81651 9.09861 6.70516 8.98726C6.59381 8.87591 6.53125 8.72489 6.53125 8.56742C6.53125 8.40995 6.59381 8.25892 6.70516 8.14757C6.81651 8.03622 6.96753 7.97367 7.125 7.97367H8.3125C8.46997 7.97367 8.62099 8.03622 8.73234 8.14757C8.84369 8.25892 8.90625 8.40995 8.90625 8.56742C8.90625 8.72489 8.84369 8.87591 8.73234 8.98726C8.62099 9.09861 8.46997 9.16117 8.3125 9.16117ZM8.3125 6.78617H7.125C6.96753 6.78617 6.81651 6.72361 6.70516 6.61226C6.59381 6.50091 6.53125 6.34989 6.53125 6.19242C6.53125 6.03495 6.59381 5.88392 6.70516 5.77257C6.81651 5.66122 6.96753 5.59867 7.125 5.59867H8.3125C8.46997 5.59867 8.62099 5.66122 8.73234 5.77257C8.84369 5.88392 8.90625 6.03495 8.90625 6.19242C8.90625 6.34989 8.84369 6.50091 8.73234 6.61226C8.62099 6.72361 8.46997 6.78617 8.3125 6.78617ZM8.3125 4.41117H7.125C6.96753 4.41117 6.81651 4.34861 6.70516 4.23726C6.59381 4.12591 6.53125 3.97489 6.53125 3.81742C6.53125 3.65995 6.59381 3.50892 6.70516 3.39757C6.81651 3.28622 6.96753 3.22367 7.125 3.22367H8.3125C8.46997 3.22367 8.62099 3.28622 8.73234 3.39757C8.84369 3.50892 8.90625 3.65995 8.90625 3.81742C8.90625 3.97489 8.84369 4.12591 8.73234 4.23726C8.62099 4.34861 8.46997 4.41117 8.3125 4.41117ZM17.9075 8.44234L12.2708 7.26196V18.8591H17.6146C18.3785 18.8591 19 18.2376 19 17.4737V9.79609C19 9.14217 18.5543 8.58563 17.9075 8.44234ZM16.0312 16.4841H14.8438C14.6863 16.4841 14.5353 16.4215 14.4239 16.3102C14.3126 16.1988 14.25 16.0478 14.25 15.8903C14.25 15.7329 14.3126 15.5818 14.4239 15.4705C14.5353 15.3591 14.6863 15.2966 14.8438 15.2966H16.0312C16.1887 15.2966 16.3397 15.3591 16.4511 15.4705C16.5624 15.5818 16.625 15.7329 16.625 15.8903C16.625 16.0478 16.5624 16.1988 16.4511 16.3102C16.3397 16.4215 16.1887 16.4841 16.0312 16.4841ZM16.0312 14.1091H14.8438C14.6863 14.1091 14.5353 14.0465 14.4239 13.9352C14.3126 13.8238 14.25 13.6728 14.25 13.5153C14.25 13.3579 14.3126 13.2068 14.4239 13.0955C14.5353 12.9841 14.6863 12.9216 14.8438 12.9216H16.0312C16.1887 12.9216 16.3397 12.9841 16.4511 13.0955C16.5624 13.2068 16.625 13.3579 16.625 13.5153C16.625 13.6728 16.5624 13.8238 16.4511 13.9352C16.3397 14.0465 16.1887 14.1091 16.0312 14.1091ZM16.0312 11.7341H14.8438C14.6863 11.7341 14.5353 11.6715 14.4239 11.5602C14.3126 11.4488 14.25 11.2978 14.25 11.1403C14.25 10.9829 14.3126 10.8318 14.4239 10.7205C14.5353 10.6091 14.6863 10.5466 14.8438 10.5466H16.0312C16.1887 10.5466 16.3397 10.6091 16.4511 10.7205C16.5624 10.8318 16.625 10.9829 16.625 11.1403C16.625 11.2978 16.5624 11.4488 16.4511 11.5602C16.3397 11.6715 16.1887 11.7341 16.0312 11.7341Z" fill="#4D4D4D"/>
</svg>
