<svg width="21" height="21" viewBox="0 0 21 21" fill="none" xmlns="http://www.w3.org/2000/svg">
<path d="M18.7949 8.9169L10.8109 16.8999C9.92947 17.8127 8.73002 18.3504 7.46215 18.4012C6.19429 18.4521 4.95563 18.0121 4.00392 17.1729C3.53919 16.7353 3.16709 16.2089 2.90969 15.6248C2.6523 15.0407 2.51487 14.4108 2.50554 13.7726C2.49621 13.1343 2.61519 12.5007 2.8554 11.9093C3.09561 11.318 3.45217 10.7809 3.90392 10.3299L10.7039 3.5299C11.2401 3.00934 11.9595 2.72063 12.7067 2.72614C13.454 2.73165 14.1691 3.03094 14.6975 3.55935C15.2259 4.08775 15.5252 4.80283 15.5307 5.55009C15.5362 6.29734 15.2475 7.01676 14.7269 7.5529L7.92692 14.3529C7.75149 14.5195 7.51882 14.6123 7.27692 14.6123C7.03501 14.6123 6.80234 14.5195 6.62692 14.3529C6.45592 14.1798 6.36004 13.9462 6.36004 13.7029C6.36004 13.4596 6.45592 13.226 6.62692 13.0529L12.0639 7.6159C12.2517 7.42706 12.3568 7.17137 12.356 6.90507C12.3553 6.63877 12.2488 6.38367 12.0599 6.1959C11.8711 6.00812 11.6154 5.90305 11.3491 5.9038C11.0828 5.90455 10.8277 6.01106 10.6399 6.1999L5.20292 11.6349C4.65595 12.1836 4.34881 12.9267 4.34881 13.7014C4.34881 14.4761 4.65595 15.2192 5.20292 15.7679C5.75951 16.2992 6.49942 16.5957 7.26892 16.5957C8.03841 16.5957 8.77832 16.2992 9.33492 15.7679L16.1349 8.9679C16.5922 8.51948 16.956 7.98486 17.2054 7.39494C17.4548 6.80502 17.5847 6.17151 17.5877 5.53106C17.5906 4.89061 17.4666 4.25593 17.2227 3.66372C16.9788 3.07151 16.62 2.53353 16.1669 2.08089C15.7138 1.62825 15.1754 1.26994 14.583 1.02668C13.9905 0.783411 13.3557 0.660025 12.7153 0.663652C12.0748 0.667279 11.4414 0.797848 10.8518 1.04781C10.2621 1.29777 9.72786 1.66215 9.27992 2.1199L2.47992 8.9199C1.8391 9.56039 1.33348 10.3231 0.993042 11.1627C0.652606 12.0023 0.484296 12.9018 0.4981 13.8077C0.511903 14.7136 0.70754 15.6076 1.0734 16.4364C1.43926 17.2653 1.96789 18.0122 2.62792 18.6329C3.86646 19.7839 5.49917 20.4163 7.18992 20.3999C9.07858 20.3994 10.8897 19.6487 12.2249 18.3129L20.2089 10.3289C20.3044 10.2366 20.3806 10.1263 20.433 10.0043C20.4854 9.8823 20.513 9.75108 20.5142 9.6183C20.5153 9.48552 20.49 9.35384 20.4397 9.23094C20.3895 9.10805 20.3152 8.99639 20.2213 8.9025C20.1274 8.80861 20.0158 8.73435 19.8929 8.68407C19.77 8.63379 19.6383 8.60849 19.5055 8.60965C19.3727 8.6108 19.2415 8.63839 19.1195 8.69079C18.9975 8.7432 18.8872 8.81939 18.7949 8.9149V8.9169Z" fill="#4D4D4D"/>
</svg>
