<svg width="22" height="12" viewBox="0 0 22 12" fill="none" xmlns="http://www.w3.org/2000/svg">
<path d="M13.7339 7.53845C13.1997 7.24665 12.5871 7.08104 11.9358 7.08104H10.388C9.71854 7.08104 9.09013 7.2562 8.54598 7.56293C7.40164 8.20712 6.62878 9.43364 6.62878 10.8403V12H15.6951V10.8403C15.6951 9.41538 14.9023 8.17599 13.7339 7.53845ZM18.0083 6.05085H16.7216C15.9703 6.05085 15.2701 6.27291 14.6827 6.6556C14.965 6.84072 15.2302 7.05697 15.4747 7.30144C16.4198 8.24655 16.9403 9.50337 16.9403 10.8403V11.3857H21.7563V9.7989C21.7563 7.73228 20.0749 6.05085 18.0083 6.05085ZM5.53965 6.05085H4.25294C2.18632 6.05085 0.504883 7.73228 0.504883 9.7989V11.3857H5.38358V10.8403C5.38358 9.50337 5.90449 8.24655 6.8496 7.30144C7.08494 7.0661 7.33938 6.85691 7.61 6.67635C7.01645 6.28121 6.30461 6.05085 5.53965 6.05085ZM17.363 0.413863C17.3564 0.413863 17.3495 0.413905 17.3429 0.413988C15.95 0.425485 14.8266 1.62939 14.8388 3.0976C14.8508 4.55885 15.9829 5.73959 17.3668 5.73959C17.3734 5.73959 17.3802 5.73955 17.3869 5.73946C18.0699 5.73382 18.7072 5.44609 19.1815 4.92921C19.6448 4.42432 19.8968 3.75905 19.891 3.05585C19.8789 1.5946 18.7469 0.413863 17.363 0.413863ZM4.89438 0.413863C4.88778 0.413863 4.88093 0.413905 4.87429 0.413988C3.48141 0.425485 2.35807 1.62939 2.37019 3.0976C2.38223 4.55885 3.51433 5.73959 4.8982 5.73959C4.90484 5.73959 4.91165 5.73955 4.91829 5.73946C5.60124 5.73382 6.23862 5.44609 6.71296 4.92921C7.1763 4.42432 7.42824 3.75905 7.42243 3.05585C7.41035 1.5946 6.2783 0.413863 4.89438 0.413863ZM11.1621 0C9.55625 0 8.25003 1.3801 8.25003 3.07689C8.25003 4.303 8.9324 5.36391 9.91736 5.85784C10.2951 6.04753 10.7172 6.15337 11.1621 6.15337C11.6071 6.15337 12.0292 6.04753 12.4069 5.85784C13.3919 5.36391 14.0743 4.303 14.0743 3.07689C14.0743 1.3801 12.768 0 11.1621 0Z" fill="#4D4D4D"/>
</svg>
